<svg version="1.1" id="Layer_1" xmlns="http://www.w3.org/2000/svg" x="0" y="0" viewBox="0 0 708.66 178.58" style="enable-background:new 0 0 708.66 178.58" xml:space="preserve"><style>.st2{fill:#fff}</style><pattern x="-70.6" y="591.64" width="69" height="69" patternUnits="userSpaceOnUse" id="Polka_Dot_Pattern" viewBox="2.12 -70.9 69 69" style="overflow:visible"><path style="fill:none" d="M2.12-70.9h69v69h-69z"/><path style="fill:#f7bc60" d="M2.12-70.9h69v69h-69z"/><path class="st2" d="M61.77-71.65c.02.07.01.13-.03.19-.05.1-.11.06-.17.13-.05.06-.1.28-.08.36-.17.06-.01.23-.02.35 0 .05-.04.11-.04.16-.01.12.02.27.07.37.1.2.27.41.44.54.19.15.36.57.61.63.18.04.38-.1.54-.14.18-.04.4.01.57-.05.22-.08.13-.34.29-.45.1-.07.29-.01.41-.05.2-.07.34-.26.38-.46.02-.08.01-.14.04-.22.04-.1.11-.16.09-.29-.01-.06-.05-.12-.06-.19-.02-.11 0-.22 0-.34 0-.2.02-.38-.08-.55-.38-.69-1.24-.93-1.97-.79-.18.03-.29.13-.44.21-.17.09-.14.17-.32.22-.08.03-.22.12-.21.22 0 .12 0 .05.01.17-.02.01-.02 0-.03-.03M54.11-71.65c.02.07.01.13-.03.19-.05.1-.11.06-.17.13-.05.06-.1.28-.08.36-.17.06-.01.23-.02.35 0 .05-.04.11-.04.16-.01.12.02.27.07.37.1.2.27.41.44.54.19.15.36.57.61.63.18.04.38-.1.54-.14.18-.04.4.01.57-.05.22-.08.13-.34.29-.45.1-.07.29-.01.41-.05.2-.07.34-.26.38-.46.02-.08.01-.14.04-.22.04-.1.11-.16.09-.29-.01-.06-.05-.12-.06-.19-.02-.11 0-.22 0-.34 0-.2.02-.38-.08-.55-.38-.69-1.24-.93-1.97-.79-.18.03-.29.13-.44.21-.17.09-.14.17-.32.22-.08.03-.22.12-.21.22 0 .12 0 .05.01.17-.02.01-.02 0-.03-.03M46.44-71.65c.02.07.01.13-.03.19-.05.1-.11.06-.17.13-.05.06-.1.28-.08.36-.17.06-.01.23-.02.35 0 .05-.04.11-.04.16-.01.12.02.27.07.37.1.2.27.41.44.54.19.15.36.57.61.63.18.04.38-.1.54-.14.18-.04.4.01.57-.05.22-.08.13-.34.29-.45.1-.07.29-.01.41-.05.2-.07.34-.26.38-.46.02-.08.01-.14.04-.22.04-.1.11-.16.09-.29-.01-.06-.05-.12-.06-.19-.02-.11 0-.22 0-.34 0-.2.02-.38-.08-.55-.38-.69-1.24-.93-1.97-.79-.18.03-.29.13-.44.21-.17.09-.14.17-.32.22-.08.03-.22.12-.21.22 0 .12 0 .05.01.17-.02.01-.02 0-.03-.03M38.77-71.65c.02.07.01.13-.03.19-.05.1-.11.06-.17.13-.05.06-.1.28-.08.36-.17.06-.01.23-.02.35 0 .05-.04.11-.04.16-.01.12.02.27.07.37.1.2.27.41.44.54.19.15.36.57.61.63.18.04.38-.1.54-.14.18-.04.4.01.57-.05.22-.08.13-.34.29-.45.1-.07.29-.01.41-.05.2-.07.34-.26.38-.46.02-.08.01-.14.04-.22.04-.1.11-.16.09-.29-.01-.06-.05-.12-.06-.19-.02-.11 0-.22 0-.34 0-.2.02-.38-.08-.55-.38-.69-1.24-.93-1.97-.79-.18.03-.29.13-.44.21-.17.09-.14.17-.32.22-.08.03-.22.12-.21.22 0 .12 0 .05.01.17-.02.01-.02 0-.03-.03M31.11-71.65c.02.07.01.13-.03.19-.05.1-.11.06-.16.13-.05.06-.1.28-.08.36-.17.06-.01.23-.02.35 0 .05-.04.11-.04.16-.01.12.02.27.07.37.1.2.27.41.43.54.19.15.36.57.61.63.18.04.38-.1.54-.14.18-.04.4.01.57-.05.22-.08.13-.34.29-.45.1-.07.29-.01.41-.05.2-.07.34-.26.38-.46.02-.08.01-.14.04-.22.04-.1.11-.16.09-.29-.01-.06-.05-.12-.06-.19-.02-.11 0-.22 0-.34 0-.2.02-.38-.08-.55-.38-.69-1.24-.93-1.97-.79-.18.03-.29.13-.44.21-.17.09-.14.17-.32.22-.08.03-.22.12-.21.22 0 .12 0 .05.01.17-.02.01-.02 0-.03-.03M23.44-71.65c.02.07.01.13-.03.19-.05.1-.11.06-.17.13-.05.06-.1.28-.08.36-.17.06-.01.23-.02.35 0 .05-.04.11-.04.16-.01.12.02.27.07.37.1.2.27.41.43.54.19.15.36.57.61.63.18.04.38-.1.54-.14.18-.04.4.01.57-.05.22-.08.13-.34.29-.45.1-.07.29-.01.41-.05.2-.07.34-.26.38-.46.02-.08.01-.14.04-.22.04-.1.11-.16.09-.29-.01-.06-.05-.12-.06-.19-.02-.11 0-.22 0-.34 0-.2.02-.38-.08-.55-.38-.69-1.24-.93-1.97-.79-.18.03-.29.13-.44.21-.17.09-.14.17-.32.22-.08.03-.22.12-.21.22 0 .12 0 .05.01.17-.02.01-.02 0-.03-.03M15.77-71.65c.02.07.01.13-.03.19-.05.1-.11.06-.17.13-.05.06-.1.28-.08.36-.17.06-.01.23-.02.35 0 .05-.04.11-.04.16-.01.12.02.27.07.37.1.2.27.41.44.54.19.15.36.57.61.63.18.04.38-.1.54-.14.18-.04.4.01.57-.05.22-.08.13-.34.29-.45.1-.07.29-.01.41-.05.2-.07.34-.26.38-.46.02-.08.01-.14.04-.22.04-.1.11-.16.09-.29-.01-.06-.05-.12-.06-.19-.02-.11 0-.22 0-.34 0-.2.02-.38-.08-.55-.38-.69-1.24-.93-1.97-.79-.18.03-.29.13-.44.21-.17.09-.14.17-.32.22-.08.03-.22.12-.21.22 0 .12 0 .05.01.17-.02.01-.02 0-.03-.03M8.11-71.65c.02.07.01.13-.03.19-.05.1-.11.06-.17.13-.05.06-.1.28-.08.36-.17.06-.01.23-.02.35 0 .05-.04.11-.04.16-.01.12.02.27.07.37.1.2.27.41.44.54.19.15.36.57.61.63.18.04.38-.1.54-.14.18-.04.4.01.57-.05.22-.08.13-.34.29-.45.1-.07.29-.01.41-.05.2-.07.34-.26.38-.46.02-.08.01-.14.04-.22.04-.1.11-.16.09-.29-.01-.06-.05-.12-.06-.19-.02-.11 0-.22 0-.34 0-.2.02-.38-.08-.55-.38-.69-1.24-.93-1.97-.79-.18.03-.29.13-.44.21-.17.09-.14.17-.32.22-.08.03-.22.12-.21.22 0 .12 0 .05.01.17-.02.01-.02 0-.03-.03M.44-71.65c.02.07.01.13-.03.19-.05.1-.11.06-.17.13-.05.06-.1.28-.08.36-.16.05 0 .22-.01.35 0 .05-.04.11-.04.16-.01.12.02.27.07.37.1.2.27.41.44.54.19.15.36.57.61.63.18.04.38-.1.54-.14.18-.04.4.01.57-.05.22-.08.13-.34.29-.45.1-.07.29-.01.41-.05.2-.07.34-.26.38-.46.02-.08.01-.14.04-.22.04-.1.11-.16.09-.29-.01-.06-.05-.12-.06-.19-.02-.11 0-.22 0-.34 0-.2.02-.38-.08-.55-.38-.69-1.24-.93-1.97-.79-.18.03-.29.13-.44.21-.17.09-.14.17-.32.22-.08.03-.22.12-.21.22 0 .12 0 .05.01.17-.02.01-.02 0-.03-.03M69.44-71.65c.02.07.01.13-.03.19-.05.1-.11.06-.17.13-.05.06-.1.28-.08.36-.17.06-.01.23-.02.35 0 .05-.04.11-.04.16-.01.12.02.27.07.37.1.2.27.41.43.54.19.15.36.57.61.63.18.04.38-.1.54-.14.18-.04.4.01.57-.05.22-.08.13-.34.29-.45.1-.07.29-.01.41-.05.2-.07.34-.26.38-.46.02-.08.01-.14.04-.22.04-.1.11-.16.09-.29-.01-.06-.05-.12-.06-.19-.02-.11 0-.22 0-.34 0-.2.02-.38-.08-.55-.38-.69-1.24-.93-1.97-.79-.18.03-.29.13-.44.21-.17.09-.14.17-.32.22-.08.03-.22.12-.21.22 0 .12 0 .05.01.17-.02.01-.02 0-.03-.03"/><path class="st2" d="M.5-71.65c.02.07.01.13-.03.19-.05.1-.11.06-.17.13-.05.06-.1.28-.08.36-.17.06-.01.23-.02.35 0 .05-.04.11-.04.16-.01.12.02.27.07.37.1.2.27.41.44.54.19.15.36.57.61.63.18.04.38-.1.54-.14.18-.04.4.01.57-.05.22-.08.13-.34.29-.45.1-.07.29-.01.41-.05.2-.07.34-.26.38-.46.02-.08.01-.14.04-.22.04-.1.11-.16.09-.29-.01-.06-.05-.12-.06-.19-.02-.11 0-.22 0-.34 0-.2.02-.38-.08-.55-.38-.69-1.24-.93-1.97-.79-.18.03-.29.13-.44.21-.17.09-.14.17-.32.22-.08.03-.22.12-.21.22 0 .12 0 .05.01.17-.02.01-.02 0-.03-.03M69.44-64c.02.07.01.13-.03.19-.05.1-.11.06-.17.13-.05.06-.1.28-.08.36-.17.06-.01.23-.02.35 0 .05-.04.11-.04.16-.01.12.02.27.07.37.1.2.27.41.43.54.19.15.36.57.61.63.18.04.38-.1.54-.14.18-.04.4.01.57-.05.22-.08.13-.34.29-.45.1-.07.29-.01.41-.05.2-.07.34-.26.38-.46.02-.08.01-.14.04-.22.04-.1.11-.16.09-.29-.01-.06-.05-.12-.06-.19-.02-.11 0-.22 0-.34 0-.2.02-.38-.08-.55-.38-.69-1.24-.93-1.97-.79-.18.03-.29.13-.44.21-.17.09-.14.17-.32.22-.08.03-.22.12-.21.22 0 .12 0 .05.01.17-.02.01-.02 0-.03-.03M61.78-64c.02.07.01.13-.03.19-.05.1-.11.06-.17.13-.05.06-.1.28-.08.36-.17.06-.01.23-.02.35 0 .05-.04.11-.04.16-.01.12.02.27.07.37.1.2.27.41.44.54.19.15.36.57.61.63.18.04.38-.1.54-.14.18-.04.4.01.57-.05.22-.08.13-.34.29-.45.1-.07.29-.01.41-.05.2-.07.34-.26.38-.46.02-.08.01-.14.04-.22.04-.1.11-.16.09-.29-.01-.06-.05-.12-.06-.19-.02-.11 0-.22 0-.34 0-.2.02-.38-.08-.55-.38-.69-1.24-.93-1.97-.79-.18.03-.29.13-.44.21-.17.09-.14.17-.32.22-.08.03-.22.12-.21.22 0 .12 0 .05.01.17-.02.01-.02 0-.03-.03M54.12-64c.02.07.01.13-.03.19-.05.1-.11.06-.17.13-.05.06-.1.28-.08.36-.17.06-.01.23-.02.35 0 .05-.04.11-.04.16-.01.12.02.27.07.37.1.2.27.41.44.54.19.15.36.57.61.63.18.04.38-.1.54-.14.18-.04.4.01.57-.05.22-.08.13-.34.29-.45.1-.07.29-.01.41-.05.2-.07.34-.26.38-.46.02-.08.01-.14.04-.22.04-.1.11-.16.09-.29-.01-.06-.05-.12-.06-.19-.02-.11 0-.22 0-.34 0-.2.02-.38-.08-.55-.38-.69-1.24-.93-1.97-.79-.18.03-.29.13-.44.21-.17.09-.14.17-.32.22-.08.03-.22.12-.21.22 0 .12 0 .05.01.17-.02.01-.02 0-.03-.03M46.46-64c.02.07.01.13-.03.19-.05.1-.11.06-.16.13-.05.06-.1.28-.08.36-.17.06-.01.23-.02.35 0 .05-.04.11-.05.16-.01.12.02.27.07.37.1.2.27.41.44.54.19.15.36.57.61.63.18.04.38-.1.54-.14.18-.04.4.01.57-.05.22-.08.13-.34.29-.45.1-.07.29-.01.41-.05.2-.07.34-.26.38-.46.02-.08.01-.14.04-.22.04-.1.11-.16.09-.29-.01-.06-.05-.12-.06-.19-.02-.11 0-.22 0-.34 0-.2.02-.38-.08-.55-.38-.69-1.24-.93-1.97-.79-.18.03-.29.13-.44.21-.17.09-.14.17-.32.22-.08.03-.22.12-.21.22 0 .12 0 .05.01.17-.02.01-.02 0-.03-.03M38.8-64c.02.07.01.13-.03.19-.05.1-.11.06-.17.13-.05.06-.1.28-.08.36-.17.06-.01.23-.02.35 0 .05-.04.11-.04.16-.01.12.02.27.07.37.1.2.27.41.44.54.19.15.36.57.61.63.18.04.38-.1.54-.14.18-.04.4.01.57-.05.22-.08.13-.34.29-.45.1-.07.29-.01.41-.05.2-.07.34-.26.38-.46.02-.08.01-.14.04-.22.04-.1.11-.16.09-.29-.01-.06-.05-.12-.06-.19-.02-.11 0-.22 0-.34 0-.2.02-.38-.08-.55-.38-.69-1.24-.93-1.97-.79-.18.03-.29.13-.44.21-.17.09-.14.17-.32.22-.08.03-.22.12-.21.22 0 .12 0 .05.01.17-.02.01-.02 0-.03-.03M31.14-64c.02.07.01.13-.03.19-.05.1-.11.06-.16.13-.05.06-.1.28-.08.36-.17.06-.01.23-.02.35 0 .05-.04.11-.05.16-.01.12.02.27.07.37.1.2.27.41.44.54.19.15.36.57.61.63.18.04.38-.1.54-.14.18-.04.4.01.57-.05.22-.08.13-.34.29-.45.1-.07.29-.01.41-.05.2-.07.34-.26.38-.46.02-.08.01-.14.04-.22.04-.1.11-.16.09-.29-.01-.06-.05-.12-.06-.19-.02-.11 0-.22 0-.34 0-.2.02-.38-.08-.55-.38-.69-1.24-.93-1.97-.79-.18.03-.29.13-.44.21-.17.09-.14.17-.32.22-.08.03-.22.12-.21.22 0 .12 0 .05.01.17-.02.01-.02 0-.03-.03M23.48-64c.02.07.01.13-.03.19-.05.1-.11.06-.17.13-.05.06-.1.28-.08.36-.17.06-.01.23-.02.35 0 .05-.04.11-.04.16-.01.12.02.27.07.37.1.2.27.41.44.54.19.15.36.57.61.63.18.04.38-.1.54-.14.18-.04.4.01.57-.05.22-.08.13-.34.29-.45.1-.07.29-.01.41-.05.2-.07.34-.26.38-.46.02-.08.01-.14.04-.22.04-.1.11-.16.09-.29-.01-.06-.05-.12-.06-.19-.02-.11 0-.22 0-.34 0-.2.02-.38-.08-.55-.38-.69-1.24-.93-1.97-.79-.18.03-.29.13-.44.21-.17.09-.14.17-.32.22-.08.03-.22.12-.21.22 0 .12 0 .05.01.17-.02.01-.02 0-.03-.03M15.82-64c.02.07.01.13-.03.19-.05.1-.11.06-.16.13-.05.06-.1.28-.08.36-.17.06-.01.23-.02.35 0 .05-.04.11-.05.16-.01.12.02.27.07.37.1.2.27.41.44.54.19.15.36.57.61.63.18.04.38-.1.54-.14.18-.04.4.01.57-.05.22-.08.13-.34.29-.45.1-.07.29-.01.41-.05.2-.07.34-.26.38-.46.02-.08.01-.14.04-.22.04-.1.11-.16.09-.29-.01-.06-.05-.12-.06-.19-.02-.11 0-.22 0-.34 0-.2.02-.38-.08-.55-.38-.69-1.24-.93-1.97-.79-.18.03-.29.13-.44.21-.17.09-.14.17-.32.22-.08.03-.22.12-.21.22 0 .12 0 .05.01.17-.02.01-.02 0-.03-.03M8.16-64c.02.07.01.13-.03.19-.05.1-.11.06-.17.13-.05.06-.1.28-.08.36-.17.06-.01.23-.02.35 0 .05-.04.11-.04.16-.01.12.02.27.07.37.1.2.27.41.44.54.19.15.36.57.61.63.18.04.38-.1.54-.14.18-.04.4.01.57-.05.22-.08.13-.34.29-.45.1-.07.29-.01.41-.05.2-.07.34-.26.38-.46.02-.08.01-.14.04-.22.04-.1.11-.16.09-.29-.01-.06-.05-.12-.06-.19-.02-.11 0-.22 0-.34 0-.2.02-.38-.08-.55-.38-.69-1.24-.93-1.97-.79-.18.03-.29.13-.44.21-.17.09-.14.17-.32.22-.08.03-.22.12-.21.22 0 .12 0 .05.01.17-.02.01-.02 0-.03-.03M.5-64c.02.07.01.13-.03.19-.05.1-.11.06-.17.13-.05.06-.1.28-.08.36-.17.06-.01.23-.02.35 0 .05-.04.11-.04.16-.01.12.02.27.07.37.1.2.27.41.44.54.19.15.36.57.61.63.18.04.38-.1.54-.14.18-.04.4.01.57-.05.22-.08.13-.34.29-.45.1-.07.29-.01.41-.05.2-.07.34-.26.38-.46.02-.08.01-.14.04-.22.04-.1.11-.16.09-.29-.02-.07-.06-.12-.07-.19-.02-.11 0-.22 0-.34 0-.2.02-.38-.08-.55-.38-.69-1.24-.93-1.97-.79-.18.03-.29.13-.44.21-.17.09-.14.17-.32.22-.08.03-.22.12-.21.22 0 .12 0 .05.01.17-.02.01-.02 0-.03-.03M69.44-56.35c.02.07.01.13-.03.19-.05.1-.11.06-.17.13-.05.06-.1.28-.08.36-.17.06-.01.23-.02.35 0 .05-.04.11-.04.16-.01.12.02.27.07.37.1.2.27.41.43.54.19.15.36.57.61.63.18.04.38-.1.54-.14.18-.04.4.01.57-.05.22-.08.13-.34.29-.45.1-.07.29-.01.41-.05.2-.07.34-.26.38-.46.02-.08.01-.14.04-.22.04-.1.11-.16.09-.29-.01-.06-.05-.12-.06-.19-.02-.11 0-.22 0-.34 0-.2.02-.38-.08-.55-.38-.69-1.24-.93-1.97-.79-.18.03-.29.13-.44.21-.17.09-.14.17-.32.22-.08.03-.22.12-.21.22 0 .12 0 .05.01.17-.02.01-.02 0-.03-.03M61.78-56.35c.02.07.01.13-.03.19-.05.1-.11.06-.17.13-.05.06-.1.28-.08.36-.17.06-.01.23-.02.35 0 .05-.04.11-.04.16-.01.12.02.27.07.37.1.2.27.41.44.54.19.15.36.57.61.63.18.04.38-.1.54-.14.18-.04.4.01.57-.05.22-.08.13-.34.29-.45.1-.07.29-.01.41-.05.2-.07.34-.26.38-.46.02-.08.01-.14.04-.22.04-.1.11-.16.09-.29-.01-.06-.05-.12-.06-.19-.02-.11 0-.22 0-.34 0-.2.02-.38-.08-.55-.38-.69-1.24-.93-1.97-.79-.18.03-.29.13-.44.21-.17.09-.14.17-.32.22-.08.03-.22.12-.21.22 0 .12 0 .05.01.17-.02.01-.02 0-.03-.03M54.12-56.35c.02.07.01.13-.03.19-.05.1-.11.06-.17.13-.05.06-.1.28-.08.36-.17.06-.01.23-.02.35 0 .05-.04.11-.04.16-.01.12.02.27.07.37.1.2.27.41.44.54.19.15.36.57.61.63.18.04.38-.1.54-.14.18-.04.4.01.57-.05.22-.08.13-.34.29-.45.1-.07.29-.01.41-.05.2-.07.34-.26.38-.46.02-.08.01-.14.04-.22.04-.1.11-.16.09-.29-.01-.06-.05-.12-.06-.19-.02-.11 0-.22 0-.34 0-.2.02-.38-.08-.55-.38-.69-1.24-.93-1.97-.79-.18.03-.29.13-.44.21-.17.09-.14.17-.32.22-.08.03-.22.12-.21.22 0 .12 0 .05.01.17-.02.01-.02 0-.03-.03M46.46-56.35c.02.07.01.13-.03.19-.05.1-.11.06-.16.13-.05.06-.1.28-.08.36-.17.06-.01.23-.02.35 0 .05-.04.11-.05.16-.01.12.02.27.07.37.1.2.27.41.44.54.19.15.36.57.61.63.18.04.38-.1.54-.14.18-.04.4.01.57-.05.22-.08.13-.34.29-.45.1-.07.29-.01.41-.05.2-.07.34-.26.38-.46.02-.08.01-.14.04-.22.04-.1.11-.16.09-.29-.01-.06-.05-.12-.06-.19-.02-.11 0-.22 0-.34 0-.2.02-.38-.08-.55-.38-.69-1.24-.93-1.97-.79-.18.03-.29.13-.44.21-.17.09-.14.17-.32.22-.08.03-.22.12-.21.22 0 .12 0 .05.01.17-.02.01-.02 0-.03-.03M38.8-56.35c.02.07.01.13-.03.19-.05.1-.11.06-.17.13-.05.06-.1.28-.08.36-.17.06-.01.23-.02.35 0 .05-.04.11-.04.16-.01.12.02.27.07.37.1.2.27.41.44.54.19.15.36.57.61.63.18.04.38-.1.54-.14.18-.04.4.01.57-.05.22-.08.13-.34.29-.45.1-.07.29-.01.41-.05.2-.07.34-.26.38-.46.02-.08.01-.14.04-.22.04-.1.11-.16.09-.29-.01-.06-.05-.12-.06-.19-.02-.11 0-.22 0-.34 0-.2.02-.38-.08-.55-.38-.69-1.24-.93-1.97-.79-.18.03-.29.13-.44.21-.17.09-.14.17-.32.22-.08.03-.22.12-.21.22 0 .12 0 .05.01.17-.02.01-.02 0-.03-.03M31.14-56.35c.02.07.01.13-.03.19-.05.1-.11.06-.16.13-.05.06-.1.28-.08.36-.17.06-.01.23-.02.35 0 .05-.04.11-.05.16-.01.12.02.27.07.37.1.2.27.41.44.54.19.15.36.57.61.63.18.04.38-.1.54-.14.18-.04.4.01.57-.05.22-.08.13-.34.29-.45.1-.07.29-.01.41-.05.2-.07.34-.26.38-.46.02-.08.01-.14.04-.22.04-.1.11-.16.09-.29-.01-.06-.05-.12-.06-.19-.02-.11 0-.22 0-.34 0-.2.02-.38-.08-.55-.38-.69-1.24-.93-1.97-.79-.18.03-.29.13-.44.21-.17.09-.14.17-.32.22-.08.03-.22.12-.21.22 0 .12 0 .05.01.17-.02.01-.02 0-.03-.03M23.48-56.35c.02.07.01.13-.03.19-.05.1-.11.06-.17.13-.05.06-.1.28-.08.36-.17.06-.01.23-.02.35 0 .05-.04.11-.04.16-.01.12.02.27.07.37.1.2.27.41.44.54.19.15.36.57.61.63.18.04.38-.1.54-.14.18-.04.4.01.57-.05.22-.08.13-.34.29-.45.1-.07.29-.01.41-.05.2-.07.34-.26.38-.46.02-.08.01-.14.04-.22.04-.1.11-.16.09-.29-.01-.06-.05-.12-.06-.19-.02-.11 0-.22 0-.34 0-.2.02-.38-.08-.55-.38-.69-1.24-.93-1.97-.79-.18.03-.29.13-.44.21-.17.09-.14.17-.32.22-.08.03-.22.12-.21.22 0 .12 0 .05.01.17-.02.01-.02 0-.03-.03M15.82-56.35c.02.07.01.13-.03.19-.05.1-.11.06-.16.13-.05.06-.1.28-.08.36-.17.06-.01.23-.02.35 0 .05-.04.11-.05.16-.01.12.02.27.07.37.1.2.27.41.44.54.19.15.36.57.61.63.18.04.38-.1.54-.14.18-.04.4.01.57-.05.22-.08.13-.34.29-.45.1-.07.29-.01.41-.05.2-.07.34-.26.38-.46.02-.08.01-.14.04-.22.04-.1.11-.16.09-.29-.01-.06-.05-.12-.06-.19-.02-.11 0-.22 0-.34 0-.2.02-.38-.08-.55-.38-.69-1.24-.93-1.97-.79-.18.03-.29.13-.44.21-.17.09-.14.17-.32.22-.08.03-.22.12-.21.22 0 .12 0 .05.01.17-.02.01-.02 0-.03-.03M8.16-56.35c.02.07.01.13-.03.19-.05.1-.11.06-.17.13-.05.06-.1.28-.08.36-.17.06-.01.23-.02.35 0 .05-.04.11-.04.16-.01.12.02.27.07.37.1.2.27.41.44.54.19.15.36.57.61.63.18.04.38-.1.54-.14.18-.04.4.01.57-.05.22-.08.13-.34.29-.45.1-.07.29-.01.41-.05.2-.07.34-.26.38-.46.02-.08.01-.14.04-.22.04-.1.11-.16.09-.29-.01-.06-.05-.12-.06-.19-.02-.11 0-.22 0-.34 0-.2.02-.38-.08-.55-.38-.69-1.24-.93-1.97-.79-.18.03-.29.13-.44.21-.17.09-.14.17-.32.22-.08.03-.22.12-.21.22 0 .12 0 .05.01.17-.02.01-.02 0-.03-.03M.5-56.35c.02.07.01.13-.03.19-.05.1-.11.06-.17.13-.05.06-.1.28-.08.36-.17.06-.01.23-.02.35 0 .05-.04.11-.04.16-.01.12.02.27.07.37.1.2.27.41.44.54.19.15.36.57.61.63.18.04.38-.1.54-.14.18-.04.4.01.57-.05.22-.08.13-.34.29-.45.1-.07.29-.01.41-.05.2-.07.34-.26.38-.46.02-.08.01-.14.04-.22.04-.1.11-.16.09-.29-.01-.06-.05-.12-.06-.19-.02-.11 0-.22 0-.34 0-.2.02-.38-.08-.55-.38-.69-1.24-.93-1.97-.79-.18.03-.29.13-.44.21-.17.09-.14.17-.32.22-.08.03-.22.12-.21.22 0 .12 0 .05.01.17-.02.01-.02 0-.03-.03M69.44-48.7c.02.07.01.13-.03.19-.05.1-.11.06-.17.13-.05.06-.1.28-.08.36-.17.06-.01.23-.02.35 0 .05-.04.11-.04.16-.01.12.02.27.07.37.1.2.27.41.43.54.19.15.36.57.61.63.18.04.38-.1.54-.14.18-.04.4.01.57-.05.22-.08.13-.34.29-.45.1-.07.29-.01.41-.05.2-.07.34-.26.38-.46.02-.08.01-.14.04-.22.04-.1.11-.16.09-.29-.01-.06-.05-.12-.06-.19-.02-.11 0-.22 0-.34 0-.2.02-.38-.08-.55-.38-.69-1.24-.93-1.97-.79-.18.03-.29.13-.44.21-.17.09-.14.17-.32.22-.08.03-.22.12-.21.22 0 .12 0 .05.01.17-.02.01-.02 0-.03-.03M61.78-48.7c.02.07.01.13-.03.19-.05.1-.11.06-.17.13-.05.06-.1.28-.08.36-.17.06-.01.23-.02.35 0 .05-.04.11-.04.16-.01.12.02.27.07.37.1.2.27.41.44.54.19.15.36.57.61.63.18.04.38-.1.54-.14.18-.04.4.01.57-.05.22-.08.13-.34.29-.45.1-.07.29-.01.41-.05.2-.07.34-.26.38-.46.02-.08.01-.14.04-.22.04-.1.11-.16.09-.29-.01-.06-.05-.12-.06-.19-.02-.11 0-.22 0-.34 0-.2.02-.38-.08-.55-.38-.69-1.24-.93-1.97-.79-.18.03-.29.13-.44.21-.17.09-.14.17-.32.22-.08.03-.22.12-.21.22 0 .12 0 .05.01.17-.02.01-.02 0-.03-.03M54.12-48.7c.02.07.01.13-.03.19-.05.1-.11.06-.17.13-.05.06-.1.28-.08.36-.17.06-.01.23-.02.35 0 .05-.04.11-.04.16-.01.12.02.27.07.37.1.2.27.41.44.54.19.15.36.57.61.63.18.04.38-.1.54-.14.18-.04.4.01.57-.05.22-.08.13-.34.29-.45.1-.07.29-.01.41-.05.2-.07.34-.26.38-.46.02-.08.01-.14.04-.22.04-.1.11-.16.09-.29-.01-.06-.05-.12-.06-.19-.02-.11 0-.22 0-.34 0-.2.02-.38-.08-.55-.38-.69-1.24-.93-1.97-.79-.18.03-.29.13-.44.21-.17.09-.14.17-.32.22-.08.03-.22.12-.21.22 0 .12 0 .05.01.17-.02.01-.02 0-.03-.03M46.46-48.7c.02.07.01.13-.03.19-.05.1-.11.06-.16.13-.05.06-.1.28-.08.36-.17.06-.01.23-.02.35 0 .05-.04.11-.05.16-.01.12.02.27.07.37.1.2.27.41.44.54.19.15.36.57.61.63.18.04.38-.1.54-.14.18-.04.4.01.57-.05.22-.08.13-.34.29-.45.1-.07.29-.01.41-.05.2-.07.34-.26.38-.46.02-.08.01-.14.04-.22.04-.1.11-.16.09-.29-.01-.06-.05-.12-.06-.19-.02-.11 0-.22 0-.34 0-.2.02-.38-.08-.55-.38-.69-1.24-.93-1.97-.79-.18.03-.29.13-.44.21-.17.09-.14.17-.32.22-.08.03-.22.12-.21.22 0 .12 0 .05.01.17-.02.01-.02 0-.03-.03M38.8-48.7c.02.07.01.13-.03.19-.05.1-.11.06-.17.13-.05.06-.1.28-.08.36-.17.06-.01.23-.02.35 0 .05-.04.11-.04.16-.01.12.02.27.07.37.1.2.27.41.44.54.19.15.36.57.61.63.18.04.38-.1.54-.14.18-.04.4.01.57-.05.22-.08.13-.34.29-.45.1-.07.29-.01.41-.05.2-.07.34-.26.38-.46.02-.08.01-.14.04-.22.04-.1.11-.16.09-.29-.01-.06-.05-.12-.06-.19-.02-.11 0-.22 0-.34 0-.2.02-.38-.08-.55-.38-.69-1.24-.93-1.97-.79-.18.03-.29.13-.44.21-.17.09-.14.17-.32.22-.08.03-.22.12-.21.22 0 .12 0 .05.01.17-.02.01-.02 0-.03-.03M31.14-48.7c.02.07.01.13-.03.19-.05.1-.11.06-.16.13-.05.06-.1.28-.08.36-.17.06-.01.23-.02.35 0 .05-.04.11-.05.16-.01.12.02.27.07.37.1.2.27.41.44.54.19.15.36.57.61.63.18.04.38-.1.54-.14.18-.04.4.01.57-.05.22-.08.13-.34.29-.45.1-.07.29-.01.41-.05.2-.07.34-.26.38-.46.02-.08.01-.14.04-.22.04-.1.11-.16.09-.29-.01-.06-.05-.12-.06-.19-.02-.11 0-.22 0-.34 0-.2.02-.38-.08-.55-.38-.69-1.24-.93-1.97-.79-.18.03-.29.13-.44.21-.17.09-.14.17-.32.22-.08.03-.22.12-.21.22 0 .12 0 .05.01.17-.02.01-.02 0-.03-.03M23.48-48.7c.02.07.01.13-.03.19-.05.1-.11.06-.17.13-.05.06-.1.28-.08.36-.17.06-.01.23-.02.35 0 .05-.04.11-.04.16-.01.12.02.27.07.37.1.2.27.41.44.54.19.15.36.57.61.63.18.04.38-.1.54-.14.18-.04.4.01.57-.05.22-.08.13-.34.29-.45.1-.07.29-.01.41-.05.2-.07.34-.26.38-.46.02-.08.01-.14.04-.22.04-.1.11-.16.09-.29-.01-.06-.05-.12-.06-.19-.02-.11 0-.22 0-.34 0-.2.02-.38-.08-.55-.38-.69-1.24-.93-1.97-.79-.18.03-.29.13-.44.21-.17.09-.14.17-.32.22-.08.03-.22.12-.21.22 0 .12 0 .05.01.17-.02.01-.02 0-.03-.03M15.82-48.7c.02.07.01.13-.03.19-.05.1-.11.06-.16.13-.05.06-.1.28-.08.36-.17.06-.01.23-.02.35 0 .05-.04.11-.05.16-.01.12.02.27.07.37.1.2.27.41.44.54.19.15.36.57.61.63.18.04.38-.1.54-.14.18-.04.4.01.57-.05.22-.08.13-.34.29-.45.1-.07.29-.01.41-.05.2-.07.34-.26.38-.46.02-.08.01-.14.04-.22.04-.1.11-.16.09-.29-.01-.06-.05-.12-.06-.19-.02-.11 0-.22 0-.34 0-.2.02-.38-.08-.55-.38-.69-1.24-.93-1.97-.79-.18.03-.29.13-.44.21-.17.09-.14.17-.32.22-.08.03-.22.12-.21.22 0 .12 0 .05.01.17-.02.01-.02 0-.03-.03M8.16-48.7c.02.07.01.13-.03.19-.05.1-.11.06-.17.13-.05.06-.1.28-.08.36-.17.06-.01.23-.02.35 0 .05-.04.11-.04.16-.01.12.02.27.07.37.1.2.27.41.44.54.19.15.36.57.61.63.18.04.38-.1.54-.14.18-.04.4.01.57-.05.22-.08.13-.34.29-.45.1-.07.29-.01.41-.05.2-.07.34-.26.38-.46.02-.08.01-.14.04-.22.04-.1.11-.16.09-.29-.01-.06-.05-.12-.06-.19-.02-.11 0-.22 0-.34 0-.2.02-.38-.08-.55-.38-.69-1.24-.93-1.97-.79-.18.03-.29.13-.44.21-.17.09-.14.17-.32.22-.08.03-.22.12-.21.22 0 .12 0 .05.01.17-.02.01-.02 0-.03-.03M.5-48.7c.02.07.01.13-.03.19-.05.1-.11.06-.17.13-.05.06-.1.28-.08.36-.17.06-.01.23-.02.35 0 .05-.04.11-.04.16-.01.12.02.27.07.37.1.2.27.41.44.54.19.15.36.57.61.63.18.04.38-.1.54-.14.18-.04.4.01.57-.05.22-.08.13-.34.29-.45.1-.07.29-.01.41-.05.2-.07.34-.26.38-.46.02-.08.01-.14.04-.22.04-.1.11-.16.09-.29-.01-.06-.05-.12-.06-.19-.02-.11 0-.22 0-.34 0-.2.02-.38-.08-.55-.38-.69-1.24-.93-1.97-.79-.18.03-.29.13-.44.21-.17.09-.14.17-.32.22-.08.03-.22.12-.21.22 0 .12 0 .05.01.17-.02.01-.02 0-.03-.03M69.44-41.04c.02.07.01.13-.03.19-.05.1-.11.06-.17.13-.05.06-.1.28-.08.36-.17.06-.01.23-.02.35 0 .05-.04.11-.04.16-.01.12.02.27.07.37.1.2.27.41.43.54.19.15.36.57.61.63.18.04.38-.1.54-.14.18-.04.4.01.57-.05.22-.08.13-.34.29-.45.1-.07.29-.01.41-.05.2-.07.34-.26.38-.46.02-.08.01-.14.04-.22.04-.1.11-.16.09-.29-.01-.06-.05-.12-.06-.19-.02-.11 0-.22 0-.34 0-.2.02-.38-.08-.55-.38-.69-1.24-.93-1.97-.79-.18.03-.29.13-.44.21-.17.09-.14.17-.32.22-.08.03-.22.12-.21.22 0 .12 0 .05.01.17-.02.01-.02 0-.03-.03M61.78-41.04c.02.07.01.13-.03.19-.05.1-.11.06-.17.13-.05.06-.1.28-.08.36-.17.06-.01.23-.02.35 0 .05-.04.11-.04.16-.01.12.02.27.07.37.1.2.27.41.44.54.19.15.36.57.61.63.18.04.38-.1.54-.14.18-.04.4.01.57-.05.22-.08.13-.34.29-.45.1-.07.29-.01.41-.05.2-.07.34-.26.38-.46.02-.08.01-.14.04-.22.04-.1.11-.16.09-.29-.01-.06-.05-.12-.06-.19-.02-.11 0-.22 0-.34 0-.2.02-.38-.08-.55-.38-.69-1.24-.93-1.97-.79-.18.03-.29.13-.44.21-.17.09-.14.17-.32.22-.08.03-.22.12-.21.22 0 .12 0 .05.01.17-.02.01-.02 0-.03-.03M54.12-41.04c.02.07.01.13-.03.19-.05.1-.11.06-.17.13-.05.06-.1.28-.08.36-.17.06-.01.23-.02.35 0 .05-.04.11-.04.16-.01.12.02.27.07.37.1.2.27.41.44.54.19.15.36.57.61.63.18.04.38-.1.54-.14.18-.04.4.01.57-.05.22-.08.13-.34.29-.45.1-.07.29-.01.41-.05.2-.07.34-.26.38-.46.02-.08.01-.14.04-.22.04-.1.11-.16.09-.29-.01-.06-.05-.12-.06-.19-.02-.11 0-.22 0-.34 0-.2.02-.38-.08-.55-.38-.69-1.24-.93-1.97-.79-.18.03-.29.13-.44.21-.17.09-.14.17-.32.22-.08.03-.22.12-.21.22 0 .12 0 .05.01.17-.02.01-.02 0-.03-.03M46.46-41.04c.02.07.01.13-.03.19-.05.1-.11.06-.16.13-.05.06-.1.28-.08.36-.17.06-.01.23-.02.35 0 .05-.04.11-.05.16-.01.12.02.27.07.37.1.2.27.41.44.54.19.15.36.57.61.63.18.04.38-.1.54-.14.18-.04.4.01.57-.05.22-.08.13-.34.29-.45.1-.07.29-.01.41-.05.2-.07.34-.26.38-.46.02-.08.01-.14.04-.22.04-.1.11-.16.09-.29-.01-.06-.05-.12-.06-.19-.02-.11 0-.22 0-.34 0-.2.02-.38-.08-.55-.38-.69-1.24-.93-1.97-.79-.18.03-.29.13-.44.21-.17.09-.14.17-.32.22-.08.03-.22.12-.21.22 0 .12 0 .05.01.17-.02.01-.02 0-.03-.03M38.8-41.04c.02.07.01.13-.03.19-.05.1-.11.06-.17.13-.05.06-.1.28-.08.36-.17.06-.01.23-.02.35 0 .05-.04.11-.04.16-.01.12.02.27.07.37.1.2.27.41.44.54.19.15.36.57.61.63.18.04.38-.1.54-.14.18-.04.4.01.57-.05.22-.08.13-.34.29-.45.1-.07.29-.01.41-.05.2-.07.34-.26.38-.46.02-.08.01-.14.04-.22.04-.1.11-.16.09-.29-.01-.06-.05-.12-.06-.19-.02-.11 0-.22 0-.34 0-.2.02-.38-.08-.55-.38-.69-1.24-.93-1.97-.79-.18.03-.29.13-.44.21-.17.09-.14.17-.32.22-.08.03-.22.12-.21.22 0 .12 0 .05.01.17-.02.01-.02 0-.03-.03M31.14-41.04c.02.07.01.13-.03.19-.05.1-.11.06-.16.13-.05.06-.1.28-.08.36-.17.06-.01.23-.02.35 0 .05-.04.11-.05.16-.01.12.02.27.07.37.1.2.27.41.44.54.19.15.36.57.61.63.18.04.38-.1.54-.14.18-.04.4.01.57-.05.22-.08.13-.34.29-.45.1-.07.29-.01.41-.05.2-.07.34-.26.38-.46.02-.08.01-.14.04-.22.04-.1.11-.16.09-.29-.01-.06-.05-.12-.06-.19-.02-.11 0-.22 0-.34 0-.2.02-.38-.08-.55-.38-.69-1.24-.93-1.97-.79-.18.03-.29.13-.44.21-.17.09-.14.17-.32.22-.08.03-.22.12-.21.22 0 .12 0 .05.01.17-.02.01-.02 0-.03-.03M23.48-41.04c.02.07.01.13-.03.19-.05.1-.11.06-.17.13-.05.06-.1.28-.08.36-.17.06-.01.23-.02.35 0 .05-.04.11-.04.16-.01.12.02.27.07.37.1.2.27.41.44.54.19.15.36.57.61.63.18.04.38-.1.54-.14.18-.04.4.01.57-.05.22-.08.13-.34.29-.45.1-.07.29-.01.41-.05.2-.07.34-.26.38-.46.02-.08.01-.14.04-.22.04-.1.11-.16.09-.29-.01-.06-.05-.12-.06-.19-.02-.11 0-.22 0-.34 0-.2.02-.38-.08-.55-.38-.69-1.24-.93-1.97-.79-.18.03-.29.13-.44.21-.17.09-.14.17-.32.22-.08.03-.22.12-.21.22 0 .12 0 .05.01.17-.02.01-.02 0-.03-.03M15.82-41.04c.02.07.01.13-.03.19-.05.1-.11.06-.16.13-.05.06-.1.28-.08.36-.17.06-.01.23-.02.35 0 .05-.04.11-.05.16-.01.12.02.27.07.37.1.2.27.41.44.54.19.15.36.57.61.63.18.04.38-.1.54-.14.18-.04.4.01.57-.05.22-.08.13-.34.29-.45.1-.07.29-.01.41-.05.2-.07.34-.26.38-.46.02-.08.01-.14.04-.22.04-.1.11-.16.09-.29-.01-.06-.05-.12-.06-.19-.02-.11 0-.22 0-.34 0-.2.02-.38-.08-.55-.38-.69-1.24-.93-1.97-.79-.18.03-.29.13-.44.21-.17.09-.14.17-.32.22-.08.03-.22.12-.21.22 0 .12 0 .05.01.17-.02.01-.02 0-.03-.03M8.16-41.04c.02.07.01.13-.03.19-.05.1-.11.06-.17.13-.05.06-.1.28-.08.36-.17.06-.01.23-.02.35 0 .05-.04.11-.04.16-.01.12.02.27.07.37.1.2.27.41.44.54.19.15.36.57.61.63.18.04.38-.1.54-.14.18-.04.4.01.57-.05.22-.08.13-.34.29-.45.1-.07.29-.01.41-.05.2-.07.34-.26.38-.46.02-.08.01-.14.04-.22.04-.1.11-.16.09-.29-.01-.06-.05-.12-.06-.19-.02-.11 0-.22 0-.34 0-.2.02-.38-.08-.55-.38-.69-1.24-.93-1.97-.79-.18.03-.29.13-.44.21-.17.09-.14.17-.32.22-.08.03-.22.12-.21.22 0 .12 0 .05.01.17-.02.01-.02 0-.03-.03M.5-41.04c.02.07.01.13-.03.19-.05.1-.11.06-.17.13-.05.06-.1.28-.08.36-.17.06-.01.23-.02.35 0 .05-.04.11-.04.16-.01.12.02.27.07.37.1.2.27.41.44.54.19.15.36.57.61.63.18.04.38-.1.54-.14.18-.04.4.01.57-.05.22-.08.13-.34.29-.45.1-.07.29-.01.41-.05.2-.07.34-.26.38-.46.02-.08.01-.14.04-.22.04-.1.11-.16.09-.29-.01-.06-.05-.12-.06-.19-.02-.11 0-.22 0-.34 0-.2.02-.38-.08-.55-.38-.69-1.24-.93-1.97-.79-.18.03-.29.13-.44.21-.17.09-.14.17-.32.22-.08.03-.22.12-.21.22 0 .12 0 .05.01.17-.02.01-.02 0-.03-.03M69.44-33.39c.02.07.01.13-.03.19-.05.1-.11.06-.17.13-.05.06-.1.28-.08.36-.17.06-.01.23-.02.35 0 .05-.04.11-.04.16-.01.12.02.27.07.37.1.2.27.41.43.54.19.15.36.57.61.63.18.04.38-.1.54-.14.18-.04.4.01.57-.05.22-.08.13-.34.29-.45.1-.07.29-.01.41-.05.2-.07.34-.26.38-.46.02-.08.01-.14.04-.22.04-.1.11-.16.09-.29-.01-.06-.05-.12-.06-.19-.02-.11 0-.22 0-.34 0-.2.02-.38-.08-.55-.38-.69-1.24-.93-1.97-.79-.18.03-.29.13-.44.21-.17.09-.14.17-.32.22-.08.03-.22.12-.21.22 0 .12 0 .05.01.17-.02.01-.02 0-.03-.03M61.78-33.39c.02.07.01.13-.03.19-.05.1-.11.06-.17.13-.05.06-.1.28-.08.36-.17.06-.01.23-.02.35 0 .05-.04.11-.04.16-.01.12.02.27.07.37.1.2.27.41.44.54.19.15.36.57.61.63.18.04.38-.1.54-.14.18-.04.4.01.57-.05.22-.08.13-.34.29-.45.1-.07.29-.01.41-.05.2-.07.34-.26.38-.46.02-.08.01-.14.04-.22.04-.1.11-.16.09-.29-.01-.06-.05-.12-.06-.19-.02-.11 0-.22 0-.34 0-.2.02-.38-.08-.55-.38-.69-1.24-.93-1.97-.79-.18.03-.29.13-.44.21-.17.09-.14.17-.32.22-.08.03-.22.12-.21.22 0 .12 0 .05.01.17-.02.01-.02 0-.03-.03M54.12-33.39c.02.07.01.13-.03.19-.05.1-.11.06-.17.13-.05.06-.1.28-.08.36-.17.06-.01.23-.02.35 0 .05-.04.11-.04.16-.01.12.02.27.07.37.1.2.27.41.44.54.19.15.36.57.61.63.18.04.38-.1.54-.14.18-.04.4.01.57-.05.22-.08.13-.34.29-.45.1-.07.29-.01.41-.05.2-.07.34-.26.38-.46.02-.08.01-.14.04-.22.04-.1.11-.16.09-.29-.01-.06-.05-.12-.06-.19-.02-.11 0-.22 0-.34 0-.2.02-.38-.08-.55-.38-.69-1.24-.93-1.97-.79-.18.03-.29.13-.44.21-.17.09-.14.17-.32.22-.08.03-.22.12-.21.22 0 .12 0 .05.01.17-.02.01-.02 0-.03-.03M46.46-33.39c.02.07.01.13-.03.19-.05.1-.11.06-.16.13-.05.06-.1.28-.08.36-.17.06-.01.23-.02.35 0 .05-.04.11-.05.16-.01.12.02.27.07.37.1.2.27.41.44.54.19.15.36.57.61.63.18.04.38-.1.54-.14.18-.04.4.01.57-.05.22-.08.13-.34.29-.45.1-.07.29-.01.41-.05.2-.07.34-.26.38-.46.02-.08.01-.14.04-.22.04-.1.11-.16.09-.29-.01-.06-.05-.12-.06-.19-.02-.11 0-.22 0-.34 0-.2.02-.38-.08-.55-.38-.69-1.24-.93-1.97-.79-.18.03-.29.13-.44.21-.17.09-.14.17-.32.22-.08.03-.22.12-.21.22 0 .12 0 .05.01.17-.02.01-.02 0-.03-.03M38.8-33.39c.02.07.01.13-.03.19-.05.1-.11.06-.17.13-.05.06-.1.28-.08.36-.17.06-.01.23-.02.35 0 .05-.04.11-.04.16-.01.12.02.27.07.37.1.2.27.41.44.54.19.15.36.57.61.63.18.04.38-.1.54-.14.18-.04.4.01.57-.05.22-.08.13-.34.29-.45.1-.07.29-.01.41-.05.2-.07.34-.26.38-.46.02-.08.01-.14.04-.22.04-.1.11-.16.09-.29-.01-.06-.05-.12-.06-.19-.02-.11 0-.22 0-.34 0-.2.02-.38-.08-.55-.38-.69-1.24-.93-1.97-.79-.18.03-.29.13-.44.21-.17.09-.14.17-.32.22-.08.03-.22.12-.21.22 0 .12 0 .05.01.17-.02.01-.02 0-.03-.03M31.14-33.39c.02.07.01.13-.03.19-.05.1-.11.06-.16.13-.05.06-.1.28-.08.36-.17.06-.01.23-.02.35 0 .05-.04.11-.05.16-.01.12.02.27.07.37.1.2.27.41.44.54.19.15.36.57.61.63.18.04.38-.1.54-.14.18-.04.4.01.57-.05.22-.08.13-.34.29-.45.1-.07.29-.01.41-.05.2-.07.34-.26.38-.46.02-.08.01-.14.04-.22.04-.1.11-.16.09-.29-.01-.06-.05-.12-.06-.19-.02-.11 0-.22 0-.34 0-.2.02-.38-.08-.55-.38-.69-1.24-.93-1.97-.79-.18.03-.29.13-.44.21-.17.09-.14.17-.32.22-.08.03-.22.12-.21.22 0 .12 0 .05.01.17-.02.01-.02 0-.03-.03M23.48-33.39c.02.07.01.13-.03.19-.05.1-.11.06-.17.13-.05.06-.1.28-.08.36-.17.06-.01.23-.02.35 0 .05-.04.11-.04.16-.01.12.02.27.07.37.1.2.27.41.44.54.19.15.36.57.61.63.18.04.38-.1.54-.14.18-.04.4.01.57-.05.22-.08.13-.34.29-.45.1-.07.29-.01.41-.05.2-.07.34-.26.38-.46.02-.08.01-.14.04-.22.04-.1.11-.16.09-.29-.01-.06-.05-.12-.06-.19-.02-.11 0-.22 0-.34 0-.2.02-.38-.08-.55-.38-.69-1.24-.93-1.97-.79-.18.03-.29.13-.44.21-.17.09-.14.17-.32.22-.08.03-.22.12-.21.22 0 .12 0 .05.01.17-.02.01-.02 0-.03-.03M15.82-33.39c.02.07.01.13-.03.19-.05.1-.11.06-.16.13-.05.06-.1.28-.08.36-.17.06-.01.23-.02.35 0 .05-.04.11-.05.16-.01.12.02.27.07.37.1.2.27.41.44.54.19.15.36.57.61.63.18.04.38-.1.54-.14.18-.04.4.01.57-.05.22-.08.13-.34.29-.45.1-.07.29-.01.41-.05.2-.07.34-.26.38-.46.02-.08.01-.14.04-.22.04-.1.11-.16.09-.29-.01-.06-.05-.12-.06-.19-.02-.11 0-.22 0-.34 0-.2.02-.38-.08-.55-.38-.69-1.24-.93-1.97-.79-.18.03-.29.13-.44.21-.17.09-.14.17-.32.22-.08.03-.22.12-.21.22 0 .12 0 .05.01.17-.02.01-.02 0-.03-.03M8.16-33.39c.02.07.01.13-.03.19-.05.1-.11.06-.17.13-.05.06-.1.28-.08.36-.17.06-.01.23-.02.35 0 .05-.04.11-.04.16-.01.12.02.27.07.37.1.2.27.41.44.54.19.15.36.57.61.63.18.04.38-.1.54-.14.18-.04.4.01.57-.05.22-.08.13-.34.29-.45.1-.07.29-.01.41-.05.2-.07.34-.26.38-.46.02-.08.01-.14.04-.22.04-.1.11-.16.09-.29-.01-.06-.05-.12-.06-.19-.02-.11 0-.22 0-.34 0-.2.02-.38-.08-.55-.38-.69-1.24-.93-1.97-.79-.18.03-.29.13-.44.21-.17.09-.14.17-.32.22-.08.03-.22.12-.21.22 0 .12 0 .05.01.17-.02.01-.02 0-.03-.03M.5-33.39c.02.07.01.13-.03.19-.05.1-.11.06-.17.13-.05.06-.1.28-.08.36-.17.06-.01.23-.02.35 0 .05-.04.11-.04.16-.01.12.02.27.07.37.1.2.27.41.44.54.19.15.36.57.61.63.18.04.38-.1.54-.14.18-.04.4.01.57-.05.22-.08.13-.34.29-.45.1-.07.29-.01.41-.05.2-.07.34-.26.38-.46.02-.08.01-.14.04-.22.04-.1.11-.16.09-.29-.01-.06-.05-.12-.06-.19-.02-.11 0-.22 0-.34 0-.2.02-.38-.08-.55-.38-.69-1.24-.93-1.97-.79-.18.03-.29.13-.44.21-.17.09-.14.17-.32.22-.08.03-.22.12-.21.22 0 .12 0 .05.01.17-.02.01-.02 0-.03-.03M69.44-25.74c.02.07.01.13-.03.19-.05.1-.11.06-.17.13-.05.06-.1.28-.08.36-.16.06 0 .23-.01.35 0 .05-.04.11-.04.16-.01.12.02.27.07.37.1.2.27.41.43.54.19.15.36.57.61.63.18.04.38-.1.54-.14.18-.04.4.01.57-.05.22-.08.13-.34.29-.45.1-.07.29-.01.41-.05.2-.07.34-.26.38-.46.02-.08.01-.14.04-.22.04-.1.11-.16.09-.29-.01-.06-.05-.12-.06-.19-.02-.11 0-.22 0-.34 0-.2.02-.38-.08-.55-.38-.69-1.24-.93-1.97-.79-.18.03-.29.13-.44.21-.17.09-.14.17-.32.22-.08.03-.22.12-.21.22 0 .12 0 .05.01.17-.02.01-.02 0-.03-.03M61.78-25.74c.02.07.01.13-.03.19-.05.1-.11.06-.17.13-.05.06-.1.28-.08.36-.17.06-.01.23-.02.35 0 .05-.04.11-.04.16-.01.12.02.27.07.37.1.2.27.41.44.54.19.15.36.57.61.63.18.04.38-.1.54-.14.18-.04.4.01.57-.05.22-.08.13-.34.29-.45.1-.07.29-.01.41-.05.2-.07.34-.26.38-.46.02-.08.01-.14.04-.22.04-.1.11-.16.09-.29-.01-.06-.05-.12-.06-.19-.02-.11 0-.22 0-.34 0-.2.02-.38-.08-.55-.38-.69-1.24-.93-1.97-.79-.18.03-.29.13-.44.21-.17.09-.14.17-.32.22-.08.03-.22.12-.21.22 0 .12 0 .05.01.17-.02.01-.02 0-.03-.03M54.12-25.74c.02.07.01.13-.03.19-.05.1-.11.06-.17.13-.05.06-.1.28-.08.36-.17.06-.01.23-.02.35 0 .05-.04.11-.04.16-.01.12.02.27.07.37.1.2.27.41.44.54.19.15.36.57.61.63.18.04.38-.1.54-.14.18-.04.4.01.57-.05.22-.08.13-.34.29-.45.1-.07.29-.01.41-.05.2-.07.34-.26.38-.46.02-.08.01-.14.04-.22.04-.1.11-.16.09-.29-.01-.06-.05-.12-.06-.19-.02-.11 0-.22 0-.34 0-.2.02-.38-.08-.55-.38-.69-1.24-.93-1.97-.79-.18.03-.29.13-.44.21-.17.09-.14.17-.32.22-.08.03-.22.12-.21.22 0 .12 0 .05.01.17-.02.01-.02 0-.03-.03M46.46-25.74c.02.07.01.13-.03.19-.05.1-.11.06-.16.13-.05.06-.1.28-.08.36-.17.06-.01.23-.02.35 0 .05-.04.11-.05.16-.01.12.02.27.07.37.1.2.27.41.44.54.19.15.36.57.61.63.18.04.38-.1.54-.14.18-.04.4.01.57-.05.22-.08.13-.34.29-.45.1-.07.29-.01.41-.05.2-.07.34-.26.38-.46.02-.08.01-.14.04-.22.04-.1.11-.16.09-.29-.01-.06-.05-.12-.06-.19-.02-.11 0-.22 0-.34 0-.2.02-.38-.08-.55-.38-.69-1.24-.93-1.97-.79-.18.03-.29.13-.44.21-.17.09-.14.17-.32.22-.08.03-.22.12-.21.22 0 .12 0 .05.01.17-.02.01-.02 0-.03-.03M38.8-25.74c.02.07.01.13-.03.19-.05.1-.11.06-.17.13-.05.06-.1.28-.08.36-.17.06-.01.23-.02.35 0 .05-.04.11-.04.16-.01.12.02.27.07.37.1.2.27.41.44.54.19.15.36.57.61.63.18.04.38-.1.54-.14.18-.04.4.01.57-.05.22-.08.13-.34.29-.45.1-.07.29-.01.41-.05.2-.07.34-.26.38-.46.02-.08.01-.14.04-.22.04-.1.11-.16.09-.29-.01-.06-.05-.12-.06-.19-.02-.11 0-.22 0-.34 0-.2.02-.38-.08-.55-.38-.69-1.24-.93-1.97-.79-.18.03-.29.13-.44.21-.17.09-.14.17-.32.22-.08.03-.22.12-.21.22 0 .12 0 .05.01.17-.02.01-.02 0-.03-.03M31.14-25.74c.02.07.01.13-.03.19-.05.1-.11.06-.16.13-.05.06-.1.28-.08.36-.17.06-.01.23-.02.35 0 .05-.04.11-.05.16-.01.12.02.27.07.37.1.2.27.41.44.54.19.15.36.57.61.63.18.04.38-.1.54-.14.18-.04.4.01.57-.05.22-.08.13-.34.29-.45.1-.07.29-.01.41-.05.2-.07.34-.26.38-.46.02-.08.01-.14.04-.22.04-.1.11-.16.09-.29-.01-.06-.05-.12-.06-.19-.02-.11 0-.22 0-.34 0-.2.02-.38-.08-.55-.38-.69-1.24-.93-1.97-.79-.18.03-.29.13-.44.21-.17.09-.14.17-.32.22-.08.03-.22.12-.21.22 0 .12 0 .05.01.17-.02.01-.02 0-.03-.03M23.48-25.74c.02.07.01.13-.03.19-.05.1-.11.06-.17.13-.05.06-.1.28-.08.36-.17.06-.01.23-.02.35 0 .05-.04.11-.04.16-.01.12.02.27.07.37.1.2.27.41.44.54.19.15.36.57.61.63.18.04.38-.1.54-.14.18-.04.4.01.57-.05.22-.08.13-.34.29-.45.1-.07.29-.01.41-.05.2-.07.34-.26.38-.46.02-.08.01-.14.04-.22.04-.1.11-.16.09-.29-.01-.06-.05-.12-.06-.19-.02-.11 0-.22 0-.34 0-.2.02-.38-.08-.55-.38-.69-1.24-.93-1.97-.79-.18.03-.29.13-.44.21-.17.09-.14.17-.32.22-.08.03-.22.12-.21.22 0 .12 0 .05.01.17-.02.01-.02 0-.03-.03M15.82-25.74c.02.07.01.13-.03.19-.05.1-.11.06-.16.13-.05.06-.1.28-.08.36-.17.06-.01.23-.02.35 0 .05-.04.11-.05.16-.01.12.02.27.07.37.1.2.27.41.44.54.19.15.36.57.61.63.18.04.38-.1.54-.14.18-.04.4.01.57-.05.22-.08.13-.34.29-.45.1-.07.29-.01.41-.05.2-.07.34-.26.38-.46.02-.08.01-.14.04-.22.04-.1.11-.16.09-.29-.01-.06-.05-.12-.06-.19-.02-.11 0-.22 0-.34 0-.2.02-.38-.08-.55-.38-.69-1.24-.93-1.97-.79-.18.03-.29.13-.44.21-.17.09-.14.17-.32.22-.08.03-.22.12-.21.22 0 .12 0 .05.01.17-.02.01-.02 0-.03-.03M8.16-25.74c.02.07.01.13-.03.19-.05.1-.11.06-.17.13-.05.06-.1.28-.08.36-.16.06 0 .23-.01.35 0 .05-.04.11-.04.16-.01.12.02.27.07.37.1.2.27.41.44.54.19.15.36.57.61.63.18.04.38-.1.54-.14.18-.04.4.01.57-.05.22-.08.13-.34.29-.45.1-.07.29-.01.41-.05.2-.07.34-.26.38-.46.02-.08.01-.14.04-.22.04-.1.11-.16.09-.29-.01-.06-.05-.12-.06-.19-.02-.11 0-.22 0-.34 0-.2.02-.38-.08-.55-.38-.69-1.24-.93-1.97-.79-.18.03-.29.13-.44.21-.17.09-.14.17-.32.22-.08.03-.22.12-.21.22 0 .12 0 .05.01.17-.02.01-.02 0-.03-.03M.5-25.74c.02.07.01.13-.03.19-.05.1-.11.06-.17.13-.05.06-.1.28-.08.36-.16.06 0 .23-.01.35 0 .05-.04.11-.04.16-.01.12.02.27.07.37.1.2.27.41.44.54.19.15.36.57.61.63.18.04.38-.1.54-.14.18-.04.4.01.57-.05.22-.08.13-.34.29-.45.1-.07.29-.01.41-.05.2-.07.34-.26.38-.46.02-.08.01-.14.04-.22.04-.1.11-.16.09-.29-.01-.06-.05-.12-.06-.19-.02-.11 0-.22 0-.34 0-.2.02-.38-.08-.55-.38-.69-1.24-.93-1.97-.79-.18.03-.29.13-.44.21-.17.09-.14.17-.32.22-.08.03-.22.12-.21.22 0 .12 0 .05.01.17-.02.01-.02 0-.03-.03M69.44-18.08c.02.07.01.13-.03.19-.05.1-.11.06-.17.13-.05.06-.1.28-.08.36-.17.06-.01.23-.02.35 0 .05-.04.11-.04.16-.01.12.02.27.07.37.1.2.27.41.43.54.19.15.36.57.61.63.18.04.38-.1.54-.14.18-.04.4.01.57-.05.22-.08.13-.34.29-.45.1-.07.29-.01.41-.05.2-.07.34-.26.38-.46.02-.08.01-.14.04-.22.04-.1.11-.16.09-.29-.01-.06-.05-.12-.06-.19-.02-.11 0-.22 0-.34 0-.2.02-.38-.08-.55-.38-.69-1.24-.93-1.97-.79-.18.03-.29.13-.44.21-.17.09-.14.17-.32.22-.08.03-.22.12-.21.22 0 .12 0 .05.01.17-.02.01-.02 0-.03-.03M61.78-18.08c.02.07.01.13-.03.19-.05.1-.11.06-.17.13-.05.06-.1.28-.08.36-.17.06-.01.23-.02.35 0 .05-.04.11-.04.16-.01.12.02.27.07.37.1.2.27.41.44.54.19.15.36.57.61.63.18.04.38-.1.54-.14.18-.04.4.01.57-.05.22-.08.13-.34.29-.45.1-.07.29-.01.41-.05.2-.07.34-.26.38-.46.02-.08.01-.14.04-.22.04-.1.11-.16.09-.29-.01-.06-.05-.12-.06-.19-.02-.11 0-.22 0-.34 0-.2.02-.38-.08-.55-.38-.69-1.24-.93-1.97-.79-.18.03-.29.13-.44.21-.17.09-.14.17-.32.22-.08.03-.22.12-.21.22 0 .12 0 .05.01.17-.02.01-.02 0-.03-.03M54.12-18.08c.02.07.01.13-.03.19-.05.1-.11.06-.17.13-.05.06-.1.28-.08.36-.17.06-.01.23-.02.35 0 .05-.04.11-.04.16-.01.12.02.27.07.37.1.2.27.41.44.54.19.15.36.57.61.63.18.04.38-.1.54-.14.18-.04.4.01.57-.05.22-.08.13-.34.29-.45.1-.07.29-.01.41-.05.2-.07.34-.26.38-.46.02-.08.01-.14.04-.22.04-.1.11-.16.09-.29-.01-.06-.05-.12-.06-.19-.02-.11 0-.22 0-.34 0-.2.02-.38-.08-.55-.38-.69-1.24-.93-1.97-.79-.18.03-.29.13-.44.21-.17.09-.14.17-.32.22-.08.03-.22.12-.21.22 0 .12 0 .05.01.17-.02.01-.02 0-.03-.03M46.46-18.08c.02.07.01.13-.03.19-.05.1-.11.06-.16.13-.05.06-.1.28-.08.36-.17.06-.01.23-.02.35 0 .05-.04.11-.05.16-.01.12.02.27.07.37.1.2.27.41.44.54.19.15.36.57.61.63.18.04.38-.1.54-.14.18-.04.4.01.57-.05.22-.08.13-.34.29-.45.1-.07.29-.01.41-.05.2-.07.34-.26.38-.46.02-.08.01-.14.04-.22.04-.1.11-.16.09-.29-.01-.06-.05-.12-.06-.19-.02-.11 0-.22 0-.34 0-.2.02-.38-.08-.55-.38-.69-1.24-.93-1.97-.79-.18.03-.29.13-.44.21-.17.09-.14.17-.32.22-.08.03-.22.12-.21.22 0 .12 0 .05.01.17-.02.01-.02 0-.03-.03M38.8-18.08c.02.07.01.13-.03.19-.05.1-.11.06-.17.13-.05.06-.1.28-.08.36-.17.06-.01.23-.02.35 0 .05-.04.11-.04.16-.01.12.02.27.07.37.1.2.27.41.44.54.19.15.36.57.61.63.18.04.38-.1.54-.14.18-.04.4.01.57-.05.22-.08.13-.34.29-.45.1-.07.29-.01.41-.05.2-.07.34-.26.38-.46.02-.08.01-.14.04-.22.04-.1.11-.16.09-.29-.01-.06-.05-.12-.06-.19-.02-.11 0-.22 0-.34 0-.2.02-.38-.08-.55-.38-.69-1.24-.93-1.97-.79-.18.03-.29.13-.44.21-.17.09-.14.17-.32.22-.08.03-.22.12-.21.22 0 .12 0 .05.01.17-.02.01-.02 0-.03-.03M31.14-18.08c.02.07.01.13-.03.19-.05.1-.11.06-.16.13-.05.06-.1.28-.08.36-.17.06-.01.23-.02.35 0 .05-.04.11-.05.16-.01.12.02.27.07.37.1.2.27.41.44.54.19.15.36.57.61.63.18.04.38-.1.54-.14.18-.04.4.01.57-.05.22-.08.13-.34.29-.45.1-.07.29-.01.41-.05.2-.07.34-.26.38-.46.02-.08.01-.14.04-.22.04-.1.11-.16.09-.29-.01-.06-.05-.12-.06-.19-.02-.11 0-.22 0-.34 0-.2.02-.38-.08-.55-.38-.69-1.24-.93-1.97-.79-.18.03-.29.13-.44.21-.17.09-.14.17-.32.22-.08.03-.22.12-.21.22 0 .12 0 .05.01.17-.02.01-.02 0-.03-.03M23.48-18.08c.02.07.01.13-.03.19-.05.1-.11.06-.17.13-.05.06-.1.28-.08.36-.17.06-.01.23-.02.35 0 .05-.04.11-.04.16-.01.12.02.27.07.37.1.2.27.41.44.54.19.15.36.57.61.63.18.04.38-.1.54-.14.18-.04.4.01.57-.05.22-.08.13-.34.29-.45.1-.07.29-.01.41-.05.2-.07.34-.26.38-.46.02-.08.01-.14.04-.22.04-.1.11-.16.09-.29-.01-.06-.05-.12-.06-.19-.02-.11 0-.22 0-.34 0-.2.02-.38-.08-.55-.38-.69-1.24-.93-1.97-.79-.18.03-.29.13-.44.21-.17.09-.14.17-.32.22-.08.03-.22.12-.21.22 0 .12 0 .05.01.17-.02.01-.02 0-.03-.03M15.82-18.08c.02.07.01.13-.03.19-.05.1-.11.06-.16.13-.05.06-.1.28-.08.36-.17.06-.01.23-.02.35 0 .05-.04.11-.05.16-.01.12.02.27.07.37.1.2.27.41.44.54.19.15.36.57.61.63.18.04.38-.1.54-.14.18-.04.4.01.57-.05.22-.08.13-.34.29-.45.1-.07.29-.01.41-.05.2-.07.34-.26.38-.46.02-.08.01-.14.04-.22.04-.1.11-.16.09-.29-.01-.06-.05-.12-.06-.19-.02-.11 0-.22 0-.34 0-.2.02-.38-.08-.55-.38-.69-1.24-.93-1.97-.79-.18.03-.29.13-.44.21-.17.09-.14.17-.32.22-.08.03-.22.12-.21.22 0 .12 0 .05.01.17-.02.01-.02 0-.03-.03M8.16-18.08c.02.07.01.13-.03.19-.05.1-.11.06-.17.13-.05.06-.1.28-.08.36-.17.06-.01.23-.02.35 0 .05-.04.11-.04.16-.01.12.02.27.07.37.1.2.27.41.44.54.19.15.36.57.61.63.18.04.38-.1.54-.14.18-.04.4.01.57-.05.22-.08.13-.34.29-.45.1-.07.29-.01.41-.05.2-.07.34-.26.38-.46.02-.08.01-.14.04-.22.04-.1.11-.16.09-.29-.01-.06-.05-.12-.06-.19-.02-.11 0-.22 0-.34 0-.2.02-.38-.08-.55-.38-.69-1.24-.93-1.97-.79-.18.03-.29.13-.44.21-.17.09-.14.17-.32.22-.08.03-.22.12-.21.22 0 .12 0 .05.01.17-.02.01-.02 0-.03-.03M.5-18.08c.02.07.01.13-.03.19-.05.1-.11.06-.17.13-.05.06-.1.28-.08.36-.17.06-.01.23-.02.35 0 .05-.04.11-.04.16-.01.12.02.27.07.37.1.2.27.41.44.54.19.15.36.57.61.63.18.04.38-.1.54-.14.18-.04.4.01.57-.05.22-.08.13-.34.29-.45.1-.07.29-.01.41-.05.2-.07.34-.26.38-.46.02-.08.01-.14.04-.22.04-.1.11-.16.09-.29-.01-.06-.05-.12-.06-.19-.02-.11 0-.22 0-.34 0-.2.02-.38-.08-.55-.38-.69-1.24-.93-1.97-.79-.18.03-.29.13-.44.21-.17.09-.14.17-.32.22-.08.03-.22.12-.21.22 0 .12 0 .05.01.17-.02.01-.02 0-.03-.03M69.44-10.43c.02.07.01.13-.03.19-.05.1-.11.06-.17.13-.05.06-.1.28-.08.36-.16.06 0 .23-.01.35 0 .05-.04.11-.04.16-.01.12.02.27.07.37.1.2.27.41.43.54.19.15.36.57.61.63.18.04.38-.1.54-.14.18-.04.4.01.57-.05.22-.08.13-.34.29-.45.1-.07.29-.01.41-.05.2-.07.34-.26.38-.46.02-.08.01-.14.04-.22.04-.1.11-.16.09-.29-.01-.06-.05-.12-.06-.19-.02-.11 0-.22 0-.34 0-.2.02-.38-.08-.55-.38-.69-1.24-.93-1.97-.79-.18.03-.29.13-.44.21-.17.09-.14.17-.32.22-.08.03-.22.12-.21.22 0 .12 0 .05.01.17-.02.01-.02 0-.03-.03M61.78-10.43c.02.07.01.13-.03.19-.05.1-.11.06-.17.13-.05.06-.1.28-.08.36-.17.06-.01.23-.02.35 0 .05-.04.11-.04.16-.01.12.02.27.07.37.1.2.27.41.44.54.19.15.36.57.61.63.18.04.38-.1.54-.14.18-.04.4.01.57-.05.22-.08.13-.34.29-.45.1-.07.29-.01.41-.05.2-.07.34-.26.38-.46.02-.08.01-.14.04-.22.04-.1.11-.16.09-.29-.01-.06-.05-.12-.06-.19-.02-.11 0-.22 0-.34 0-.2.02-.38-.08-.55-.38-.69-1.24-.93-1.97-.79-.18.03-.29.13-.44.21-.17.09-.14.17-.32.22-.08.03-.22.12-.21.22 0 .12 0 .05.01.17-.02.01-.02 0-.03-.03M54.12-10.43c.02.07.01.13-.03.19-.05.1-.11.06-.17.13-.05.06-.1.28-.08.36-.17.06-.01.23-.02.35 0 .05-.04.11-.04.16-.01.12.02.27.07.37.1.2.27.41.44.54.19.15.36.57.61.63.18.04.38-.1.54-.14.18-.04.4.01.57-.05.22-.08.13-.34.29-.45.1-.07.29-.01.41-.05.2-.07.34-.26.38-.46.01-.08 0-.15.03-.22.04-.1.11-.16.09-.29-.01-.06-.05-.12-.06-.19-.02-.11 0-.22 0-.34 0-.2.02-.38-.08-.55-.38-.69-1.24-.93-1.97-.79-.18.03-.29.13-.44.21-.17.09-.14.17-.32.22-.08.03-.22.12-.21.22 0 .12 0 .05.01.17-.02.01-.02 0-.03-.03M46.46-10.43c.02.07.01.13-.03.19-.05.1-.11.06-.16.13-.05.06-.1.28-.08.36-.17.06-.01.23-.02.35 0 .05-.04.11-.05.16-.01.12.02.27.07.37.1.2.27.41.44.54.19.15.36.57.61.63.18.04.38-.1.54-.14.18-.04.4.01.57-.05.22-.08.13-.34.29-.45.1-.07.29-.01.41-.05.2-.07.34-.26.38-.46.02-.08.01-.14.04-.22.04-.1.11-.16.09-.29-.01-.06-.05-.12-.06-.19-.02-.11 0-.22 0-.34 0-.2.02-.38-.08-.55-.38-.69-1.24-.93-1.97-.79-.18.03-.29.13-.44.21-.17.09-.14.17-.32.22-.08.03-.22.12-.21.22 0 .12 0 .05.01.17-.02.01-.02 0-.03-.03M38.8-10.43c.02.07.01.13-.03.19-.05.1-.11.06-.17.13-.05.06-.1.28-.08.36-.17.06-.01.23-.02.35 0 .05-.04.11-.04.16-.01.12.02.27.07.37.1.2.27.41.44.54.19.15.36.57.61.63.18.04.38-.1.54-.14.18-.04.4.01.57-.05.22-.08.13-.34.29-.45.1-.07.29-.01.41-.05.2-.07.34-.26.38-.46.01-.08 0-.15.03-.22.04-.1.11-.16.09-.29-.01-.06-.05-.12-.06-.19-.02-.11 0-.22 0-.34 0-.2.02-.38-.08-.55-.38-.69-1.24-.93-1.97-.79-.18.03-.29.13-.44.21-.17.09-.14.17-.32.22-.08.03-.22.12-.21.22 0 .12 0 .05.01.17-.02.01-.02 0-.03-.03M31.14-10.43c.02.07.01.13-.03.19-.05.1-.11.06-.16.13-.05.06-.1.28-.08.36-.17.06-.01.23-.02.35 0 .05-.04.11-.05.16-.01.12.02.27.07.37.1.2.27.41.44.54.19.15.36.57.61.63.18.04.38-.1.54-.14.18-.04.4.01.57-.05.22-.08.13-.34.29-.45.1-.07.29-.01.41-.05.2-.07.34-.26.38-.46.02-.08.01-.14.04-.22.04-.1.11-.16.09-.29-.01-.06-.05-.12-.06-.19-.02-.11 0-.22 0-.34 0-.2.02-.38-.08-.55-.38-.69-1.24-.93-1.97-.79-.18.03-.29.13-.44.21-.17.09-.14.17-.32.22-.08.03-.22.12-.21.22 0 .12 0 .05.01.17-.02.01-.02 0-.03-.03M23.48-10.43c.02.07.01.13-.03.19-.05.1-.11.06-.17.13-.05.06-.1.28-.08.36-.17.06-.01.23-.02.35 0 .05-.04.11-.04.16-.01.12.02.27.07.37.1.2.27.41.44.54.19.15.36.57.61.63.18.04.38-.1.54-.14.18-.04.4.01.57-.05.22-.08.13-.34.29-.45.1-.07.29-.01.41-.05.2-.07.34-.26.38-.46.02-.08.01-.14.04-.22.04-.1.11-.16.09-.29-.01-.06-.05-.12-.06-.19-.02-.11 0-.22 0-.34 0-.2.02-.38-.08-.55-.38-.69-1.24-.93-1.97-.79-.18.03-.29.13-.44.21-.17.09-.14.17-.32.22-.08.03-.22.12-.21.22 0 .12 0 .05.01.17-.02.01-.02 0-.03-.03M15.82-10.43c.02.07.01.13-.03.19-.05.1-.11.06-.16.13-.05.06-.1.28-.08.36-.17.06-.01.23-.02.35 0 .05-.04.11-.05.16-.01.12.02.27.07.37.1.2.27.41.44.54.19.15.36.57.61.63.18.04.38-.1.54-.14.18-.04.4.01.57-.05.22-.08.13-.34.29-.45.1-.07.29-.01.41-.05.2-.07.34-.26.38-.46.01-.08 0-.15.03-.22.04-.1.11-.16.09-.29-.01-.06-.05-.12-.06-.19-.02-.11 0-.22 0-.34 0-.2.02-.38-.08-.55-.38-.69-1.24-.93-1.97-.79-.18.03-.29.13-.44.21-.17.09-.14.17-.32.22-.08.03-.22.12-.21.22 0 .12 0 .05.01.17-.02.01-.02 0-.03-.03M8.16-10.43c.02.07.01.13-.03.19-.05.1-.11.06-.17.13-.05.06-.1.28-.08.36-.16.06 0 .23-.01.35 0 .05-.04.11-.04.16-.01.12.01.27.06.37.1.2.27.41.44.54.19.15.36.57.61.63.18.04.38-.1.54-.14.18-.04.4.01.57-.05.22-.08.13-.34.29-.45.1-.07.29-.01.41-.05.2-.07.34-.26.38-.46.02-.08.01-.14.04-.22.04-.1.11-.16.09-.29-.01-.06-.05-.12-.06-.19-.02-.11 0-.22 0-.34 0-.2.02-.38-.08-.55-.38-.69-1.24-.93-1.97-.79-.18.03-.29.13-.44.21-.17.09-.14.17-.32.22-.08.03-.22.12-.21.22 0 .12 0 .05.01.17-.02.01-.02 0-.03-.03M.5-10.43c.02.07.01.13-.03.19-.05.1-.11.06-.17.13-.05.06-.1.28-.08.36-.16.06 0 .23-.01.35 0 .05-.04.11-.04.16-.01.12.01.27.06.37.1.2.27.41.44.54.19.15.36.57.61.63.18.04.38-.1.54-.14.18-.04.4.01.57-.05.22-.08.13-.34.29-.45.1-.07.29-.01.41-.05.2-.07.34-.26.38-.46.01-.08 0-.15.03-.22.04-.1.11-.16.09-.29-.01-.07-.05-.12-.06-.19-.02-.11 0-.22 0-.34 0-.2.02-.38-.08-.55-.38-.69-1.24-.93-1.97-.79-.18.03-.29.13-.44.21-.17.09-.14.17-.32.22-.08.03-.22.12-.21.22 0 .12 0 .05.01.17-.02.01-.02 0-.03-.03M69.44-2.78c.02.07.01.13-.03.19-.05.1-.11.06-.17.13-.05.06-.1.28-.08.36-.16.06 0 .23-.01.35 0 .05-.04.11-.04.16-.01.12.02.27.07.37.1.2.27.41.43.54.19.15.36.57.61.63.18.05.38-.1.54-.13.18-.04.4.01.57-.05.22-.08.13-.34.29-.45.1-.07.29-.01.41-.05.2-.08.34-.27.37-.47.02-.08.01-.14.04-.22.04-.1.11-.16.09-.29-.01-.06-.05-.12-.06-.19-.02-.11 0-.22 0-.34 0-.2.02-.38-.08-.55-.38-.69-1.24-.93-1.97-.79-.18.03-.29.13-.44.21-.17.09-.14.17-.32.22-.08.03-.22.12-.21.22 0 .12 0 .05.01.17-.02.01-.02 0-.03-.03M61.78-2.78c.02.07.01.13-.03.19-.05.1-.11.06-.17.13-.05.06-.1.28-.08.36-.17.06-.01.23-.02.35 0 .05-.04.11-.04.16-.01.12.02.27.07.37.1.2.27.41.44.54.19.15.36.57.61.63.18.04.38-.1.54-.14.18-.04.4.01.57-.05.22-.08.13-.34.29-.45.1-.07.29-.01.41-.05.2-.07.34-.26.38-.46.02-.08.01-.14.04-.22.04-.1.11-.16.09-.29-.01-.06-.05-.12-.06-.19-.02-.11 0-.22 0-.34 0-.2.02-.38-.08-.55-.38-.69-1.24-.93-1.97-.79-.18.03-.29.13-.44.21-.19.09-.15.17-.33.23-.08.03-.22.12-.21.22 0 .12 0 .05.01.17-.02.01-.02 0-.03-.03M54.12-2.78c.02.07.01.13-.03.19-.05.1-.11.06-.17.13-.05.06-.1.28-.08.36-.17.06-.01.23-.02.35 0 .05-.04.11-.04.16-.01.12.02.27.07.37.1.2.27.41.44.54.19.15.36.57.61.63.18.04.38-.1.54-.14.18-.04.4.01.57-.05.22-.08.13-.34.29-.45.1-.07.29-.01.41-.05.2-.07.34-.26.38-.46.02-.08.01-.14.04-.22.04-.1.11-.16.09-.29-.01-.06-.05-.12-.06-.19-.02-.11 0-.22 0-.34 0-.2.02-.38-.08-.55-.38-.69-1.24-.93-1.97-.79-.18.03-.29.13-.44.21-.17.09-.14.17-.32.22-.08.03-.22.12-.21.22 0 .12 0 .05.01.17-.02.01-.02 0-.03-.03M46.46-2.78c.02.07.01.13-.03.19-.05.1-.11.06-.16.13-.05.06-.1.28-.08.36-.17.06-.01.23-.02.35 0 .05-.04.11-.05.16-.01.12.02.27.07.37.1.2.27.41.44.54.19.16.37.58.61.64.18.04.38-.1.54-.14.18-.04.4.01.57-.05.22-.08.13-.34.29-.45.1-.07.29-.01.41-.05.2-.07.34-.26.38-.46.02-.08.01-.14.04-.22.04-.1.11-.16.09-.29-.01-.06-.05-.12-.06-.19-.02-.11 0-.22 0-.34 0-.2.02-.38-.08-.55-.38-.69-1.24-.93-1.97-.79-.18.03-.29.13-.44.21-.17.09-.14.17-.32.22-.08.03-.22.12-.21.22 0 .12 0 .05.01.17-.02.01-.02 0-.03-.03M38.8-2.78c.02.07.01.13-.03.19-.05.1-.11.06-.17.13-.05.06-.1.28-.08.36-.17.06-.01.23-.02.35 0 .05-.04.11-.04.16-.01.12.02.27.07.37.1.2.27.41.44.54.19.15.36.57.61.63.18.04.38-.1.54-.14.18-.04.4.01.57-.05.22-.08.13-.34.29-.45.1-.07.29-.01.41-.05.2-.07.34-.26.38-.46.02-.08.01-.14.04-.22.04-.1.11-.16.09-.29-.01-.06-.05-.12-.06-.19-.02-.11 0-.22 0-.34 0-.2.02-.38-.08-.55-.38-.69-1.24-.93-1.97-.79-.18.03-.29.13-.44.21-.17.09-.14.17-.32.22-.08.03-.22.12-.21.22 0 .12 0 .05.01.17-.02.01-.02 0-.03-.03M31.14-2.78c.02.07.01.13-.03.19-.05.1-.11.06-.16.13-.05.06-.1.28-.08.36-.17.06-.01.23-.02.35 0 .05-.04.11-.05.16-.01.12.02.27.07.37.1.2.27.41.44.54.19.15.36.57.61.63.18.05.38-.1.54-.13.18-.04.4.01.57-.05.22-.08.13-.34.29-.45.1-.07.29-.01.41-.05.2-.08.34-.27.37-.47.02-.08.01-.14.04-.22.04-.1.11-.16.09-.29-.01-.06-.05-.12-.06-.19-.02-.11 0-.22 0-.34 0-.2.02-.38-.08-.55-.38-.69-1.24-.93-1.97-.79-.18.03-.29.13-.44.21-.17.09-.14.17-.32.22-.08.03-.22.12-.21.22 0 .12 0 .05.01.17-.02.01-.02 0-.03-.03M23.48-2.78c.02.07.01.13-.03.19-.05.1-.11.06-.17.13-.05.06-.1.28-.08.36-.17.06-.01.23-.02.35 0 .05-.04.11-.04.16-.01.12.02.27.07.37.1.2.27.41.44.54.19.15.36.57.61.63.18.04.38-.1.54-.14.18-.04.4.01.57-.05.22-.08.13-.34.29-.45.1-.07.29-.01.41-.05.2-.07.34-.26.38-.46.02-.08.01-.14.04-.22.04-.1.11-.16.09-.29-.01-.06-.05-.12-.06-.19-.02-.11 0-.22 0-.34 0-.2.02-.38-.08-.55-.38-.69-1.24-.93-1.97-.79-.18.03-.29.13-.44.21-.17.09-.14.17-.32.22-.08.03-.22.12-.21.22 0 .12 0 .05.01.17-.02.01-.02 0-.03-.03M15.82-2.78c.02.07.01.13-.03.19-.05.1-.11.06-.16.13-.05.06-.1.28-.08.36-.17.06-.01.23-.02.35 0 .05-.04.11-.05.16-.01.12.02.27.07.37.1.2.27.41.44.54.19.15.36.57.61.63.18.04.38-.1.54-.14.18-.04.4.01.57-.05.22-.08.13-.34.29-.45.1-.07.29-.01.41-.05.2-.07.34-.26.38-.46.02-.08.01-.14.04-.22.04-.1.11-.16.09-.29-.01-.06-.05-.12-.06-.19-.02-.11 0-.22 0-.34 0-.2.02-.38-.08-.55-.38-.69-1.24-.93-1.97-.79-.18.03-.29.13-.44.21-.17.09-.14.17-.32.22-.08.03-.22.12-.21.22 0 .12 0 .05.01.17-.02.01-.02 0-.03-.03M8.16-2.78c.02.07.01.13-.03.19-.05.1-.11.06-.17.13-.05.06-.09.28-.07.36-.17.06-.01.23-.02.35 0 .05-.04.11-.04.16-.01.12.01.27.06.37.1.2.27.41.44.54.19.16.36.58.61.64.17.04.38-.11.54-.14.18-.04.4.01.57-.05.22-.08.13-.34.29-.45.1-.07.29-.01.41-.05.2-.07.34-.26.38-.46.02-.08.01-.14.04-.22.04-.1.11-.16.09-.29-.01-.06-.05-.12-.06-.19-.02-.11 0-.22 0-.34 0-.2.02-.38-.08-.55-.38-.69-1.24-.93-1.97-.79-.2.03-.3.12-.46.2-.17.09-.14.17-.32.23-.08.02-.21.12-.21.22 0 .12 0 .05.01.17-.02.01-.02 0-.03-.03M.5-2.78c.01.07 0 .13-.03.19-.05.1-.11.06-.17.13-.05.06-.09.28-.07.36-.17.06-.02.23-.02.35 0 .05-.04.11-.04.16-.02.12.01.27.06.37.1.2.27.41.44.54.19.16.36.58.61.64.17.04.38-.11.54-.14.18-.05.4.01.57-.06.22-.08.13-.34.29-.45.1-.07.29-.01.41-.05.19-.07.33-.26.37-.46.02-.08.01-.14.04-.22.04-.1.11-.16.09-.29-.01-.06-.05-.12-.06-.19-.02-.11 0-.22 0-.34 0-.2.02-.38-.08-.55-.38-.68-1.24-.92-1.98-.78-.18.03-.28.12-.44.2-.17.09-.14.17-.32.23-.08.02-.21.12-.21.22 0 .12 0 .05.01.17-.02.01-.02 0-.03-.03"/></pattern><path d="M696.66 6.8c1.64 0 3.24.42 4.81 1.26 1.56.84 2.78 2.05 3.65 3.62.87 1.57 1.31 3.2 1.31 4.9 0 1.68-.43 3.3-1.29 4.86-.86 1.55-2.07 2.76-3.62 3.62-1.55.86-3.17 1.29-4.87 1.29-1.69 0-3.32-.43-4.87-1.29-1.55-.86-2.76-2.07-3.62-3.62-.86-1.56-1.3-3.17-1.3-4.86 0-1.7.44-3.34 1.32-4.9.88-1.57 2.1-2.77 3.66-3.62 1.58-.84 3.18-1.26 4.82-1.26zm0 1.62c-1.37 0-2.71.35-4.01 1.06-1.3.7-2.32 1.71-3.05 3.02s-1.1 2.67-1.1 4.09c0 1.41.36 2.76 1.08 4.05.72 1.29 1.73 2.3 3.03 3.02 1.3.72 2.65 1.08 4.06 1.08 1.41 0 2.76-.36 4.06-1.08 1.3-.72 2.3-1.73 3.02-3.02.72-1.29 1.08-2.64 1.08-4.05 0-1.42-.36-2.78-1.09-4.09-.73-1.31-1.75-2.31-3.05-3.02-1.33-.71-2.66-1.06-4.03-1.06zm-4.29 13.57V11.47h3.61c1.24 0 2.13.1 2.68.29.55.19.99.53 1.32 1.02.33.48.49 1 .49 1.54 0 .77-.27 1.44-.82 2.01-.55.57-1.28.89-2.18.96.37.16.67.34.89.56.42.41.94 1.11 1.55 2.09l1.28 2.06h-2.07l-.93-1.66c-.73-1.3-1.33-2.12-1.78-2.45-.31-.24-.76-.36-1.36-.36h-1V22h-1.68zm1.7-5.92h2.06c.99 0 1.66-.15 2.01-.44.36-.29.54-.68.54-1.17 0-.31-.09-.59-.26-.84s-.41-.43-.72-.55c-.31-.12-.88-.18-1.7-.18h-1.93v3.18z"/><path d="M94.62 16.08c-6.52-3.15-14.48-4.71-23.17-4.71l-12.85.28-14.62.39c-5.48 0-10.03-.06-13.69-.24-5.89-.27-7.09-.46-10.66-.46-3.57 0-4.98 1.79-5.7 2.78-.73.99-1.14 2.81-1.14 5.28 0 3.16 1.39 5.85 3.1 6.93 1.71 1.08 2.87 1.23 4.26 2.82 1.39 1.59.94 2.15.94 5.4L21 49.26V67.6l-.14 14.94c0 3.24-.04 3.85-.51 4.88-.48 1.04-1.57 1.68-3.43 2.54-2.85 1.35-4.07 4.15-4.07 7.3 0 2.48.69 5.47 1.7 6.39 1.02.92 1.82 1.82 4.63 1.82 1.31 0 9.55-.15 9.55-.15s9.91-.51 15.21-.51l14.47.31 13.04.48c12.99 0 23.03-2.62 30.87-9.51 5.04-4.12 8.94-9.44 11.66-15.91 2.72-6.47 4.21-14.53 4.21-21.52 0-9.28-1.6-17.57-5.87-25.18-4.29-7.61-10.51-13.89-17.7-17.4zM75.04 79.7c-1.59 2.37-4.73 5.37-10.16 5.37-3.58 0-4.97-.37-5.7-1.36-.73-.99-.99-1.86-.99-6.19l.16-32.8s.08-10.37.08-11.71c0-1.34.18-1.6.18-1.6s.09-.67 1.77-.67c6.02 0 9.24 2.56 12.89 7.83 4.07 6.31 5.74 13.19 5.74 22.52.41 10.04-2.38 16.24-3.97 18.61zm123.03-40.22c-7.29-6.47-17.37-9.7-30.26-9.7-13.66 0-24.3 3.61-31.93 10.84-7.63 7.22-11.44 17.3-11.44 30.24 0 11.47 3.55 20.33 10.65 26.59 7.1 6.26 17.17 9.39 30.19 9.39 13.7 0 24.42-3.59 32.13-10.77C205.14 88.89 209 78.95 209 66.24c0-11.38-3.64-20.3-10.93-26.76zm-31.14 48.28c-3.59-.46-5.32-4.48-5.81-5.75-1.44-3.56-2.34-11.81-2.34-16.25.12-13.61 2.96-17.35 6.3-17.83 3.35-.48 8 5.27 8 24.81.01 10.82-2.56 15.48-6.15 15.02zm142.77 3.77c-1.87-1.15-3.82-2.46-4.35-4.57-.53-2.11-.77-8.38-.87-11.65-.1-3.27 0-14.58 0-14.58 0-10.36-2.12-17.88-6.37-22.56-2.24-2.43-5.1-4.4-8.59-5.91-3.49-1.51-8.09-2.36-11.51-2.36-6.12 0-11.27 1.42-17.62 4.91-2.01 1.1-2.45 1.61-3.14 1.61-.76 0-.93-.56-.93-3.18 0-3.26-2.49-5.17-5.55-5.17-3.29 0-9.57 1.17-16.83 3.51-7.26 2.34-12.1 4.95-15.34 7.01-2.24 1.47-3.36 3.7-3.36 6.08 0 2.43.38 4.56 3.21 5.98 1.83.96 3.49 2.35 3.94 3.53.45 1.18.66 4.56.66 4.56l-.05 1.85V75.3c0 6.51-.25 9.29-.77 11.38-.52 2.09-1.75 3.25-3.62 4.39-2.04 1.13-2.99 3.21-2.99 3.21s-.63 2.11-.63 3.71c0 4.17 3.03 7.61 6.1 7.56.82 0 3.46 0 7.8-.27 2.74-.18 4.23-.23 7.79-.23 3.65 0 9.15-.04 11.39.09 2.25.13 7.48.23 8.3.23 4.43.02 6.97-1.99 6.97-6.11 0-2.57.05-4.8-2.58-7.43-2.08-1.99-3.05-2.53-3.49-4.66-.43-2.13-.63-5.13-.63-11.55l.04-14.67c0-5.82.23-8.42.86-9.46.63-1.04 2.31-1.68 3.85-1.63 1.99.18 5.42 1.5 7.52 4.71 2.1 3.21 2.31 11.11 2.31 16.93 0 0-.26 13.83-.59 15.49-.33 1.65-1.62 2.97-3.17 4.17-1.46 1.01-2.12 1.85-2.54 2.63-.41.78-.32 3.83-.32 5.48 0 4.13 3.11 6.29 6.67 6.29.73 0 2.8-.13 7.1-.41 2.69-.18 6.26-.28 9.82-.28 3.74 0 7.09.23 10.01.42 4.7.27 7.45.27 8.27.27 4.34 0 6.4-3.16 6.4-7.29 0-1.6-.68-3.71-.68-3.71s-.8-2.03-2.49-3.03zm100.05-80.25c-2.32 0-6.33.14-12.02.41-3.73.18-9.49.27-17.28.27l-15.57-.27-11.5-.24c-2.78 0-4.6.9-5.65 1.83-1.05.93-1.89 2.39-1.89 4.89 0 3.19.09 6.93 2.96 8.3 1.87.86 2.87 1.29 3.67 2 .81.72 1.34 1.64 1.34 4.91l.42 15.7v18.5l-.61 15.07c0 3.28-.09 3.87-.57 4.91-.48 1.05-1.57 1.62-3.43 2.48-2.87 1.37-4.15 4.15-4.06 8.79 0 2.5 1.15 4.29 2.2 5.23 1.05.93 2.56 1.57 5.29 1.57.96 0 3.65-.25 8.3-.52 2.91-.18 6.22-.41 10.23-.41 4.55 0 10.09.49 11.75.5 1.66.01 8.38.29 9.42.29 4.01 0 7.16-.57 8.66-1.5s2.96-2.65 2.96-5.15c0-3.23-.52-7.13-5.1-8.65-4.58-1.53-5.72-2.72-5.72-2.72s-1.1-.67-1.14-4.15l-.05-9.68c0-2.05.05-2.74 1.24-2.69.73.05 2.53.45 4.58.67 2.73.37 7.47.44 10.4.44 9.03-.07 18.25-2.77 23.92-7.69 5.67-4.91 8.47-12.51 8.47-21.7 0-9.28-2.56-16.57-8.34-22.15-5.8-5.57-13.32-9.24-22.88-9.24zm-7.44 36.55c-1.09 2.01-3.75 4.22-7.21 4.22-2.09 0-2.68-.12-3.36-1.19-.68-1.07-.43-2.41-.43-5.73l-.2-9.68c0-3.14.36-4.58.56-4.87.2-.3.75-.95 2.21-.95 1.74.03 4.18 1.45 6.39 3.56 2.21 2.11 3.33 5.89 3.39 8 .06 2.1-.26 4.64-1.35 6.64zm108.91 16.14c2.47-.55 4.83-1.91 5.73-3.56.9-1.65 1.2-2.76 1.2-4.64 0-5.72-2.59-11.33-7.25-16.23-6.36-6.69-14.88-10.2-25.54-10.2-11.44 0-21.32 3.79-29.05 11.53-7.73 7.74-11.29 17.56-11.29 28.97 0 11.5 3.05 20.58 9.16 27.24s14.44 10 25.01 10c10.52 0 19.62-2.59 27.31-7.76 3.3-2.24 6-4.9 8.13-7.97 2.13-3.07 2.69-5.4 3.19-8.45.55-4.21-1.79-7.28-4.77-7.28-1.28 0-4.63.84-7.79 3.22-4.07 3.07-7.04 4.42-11.98 4.42-4.87-.45-7.96-1.18-11.53-5.76-2.52-3.21-2.7-5.91-2.7-5.91s3.39-.87 5.32-1.35c1.94-.5 26.85-6.27 26.85-6.27zm-32.15-8.15c-.69.18-1.95.74-2.56.69-.61-.05-.94-.67-.84-1.95.1-1.29.53-4.32 2.38-6.61 1.85-2.29 3.76-2.43 4.58-2.42.83.02 2.29.26 3.84 1.93 1.55 1.67 1.52 3.76 1.52 3.76s.45 1.98-2.75 2.85l-6.17 1.75zm204.07 19.79c-1.28 0-4.63.84-7.79 3.22-4.07 3.07-7.04 4.42-11.98 4.42-4.87-.45-7.96-1.18-11.53-5.77-2.52-3.21-2.7-5.91-2.7-5.91s3.39-.87 5.32-1.35c1.92-.48 26.84-6.25 26.84-6.25 2.47-.55 4.83-1.91 5.73-3.56.9-1.65 1.2-2.76 1.2-4.64 0-5.72-2.59-11.33-7.25-16.23-6.36-6.69-14.88-10.2-25.54-10.2-11.44 0-21.32 3.79-29.05 11.53-7.73 7.74-11.29 17.56-11.29 28.97 0 11.5 3.05 20.58 9.16 27.24 6.1 6.66 14.44 10 25.01 10 10.52 0 19.62-2.59 27.31-7.76 3.29-2.25 6-4.9 8.13-7.97 2.13-3.07 2.69-5.4 3.19-8.45.56-4.22-1.79-7.29-4.76-7.29zm-36.55-19.1c-.61-.05-.94-.67-.84-1.95.1-1.29.53-4.32 2.38-6.61 1.85-2.29 3.76-2.43 4.58-2.41.83.02 2.29.26 3.84 1.93 1.55 1.67 1.52 3.76 1.52 3.76s.45 1.98-2.75 2.85l-6.17 1.74c-.69.18-1.95.74-2.56.69zm-67.32-26.64c-4.82 0-9.46.96-14.33 3.45l-2.1 1.12c-.45.23-1.03-.12-1.03-1.98 0-2.94-2.73-4.4-5.78-4.4-3.27 0-8.94 1.16-16.1 3.45-7.17 2.28-13.03 4.9-15.66 6.9-2.63 2-4 5.22-3.09 8.58.91 3.36 3.54 3.95 5.11 5.24 1.57 1.29 1.79 2.44 2.29 4.38v1.63l.04 1.95.41 44.93c0 6.42-.39 8.92-.91 10.98-.52 2.06-1.62 3.26-3.48 4.35-1.68 1.04-2.6 2.11-3.1 2.88-1.08 1.98-1.08 3.61-.9 5.47.56 4.47 3.64 6.37 7.96 6.37.82 0 2.04.06 6.45-.26 2.77-.18 6-.47 9.6-.47 3.64 0 6.94.03 9.94.22 4.96.32 7.81.32 8.77.32 8.66.28 9.95-4.45 10.17-5.53.22-1.08.56-4.17-.52-5.72-1.08-1.55-2.12-2.06-4.3-3.06-2.46-1.04-4.18-2.09-4.91-3.79-.73-1.7-.95-2.4-.95-6.97l.17-5.08s2.28.82 3.34 1.08c1.06.26 4.96 1.08 7.51 1.08 10.78 0 19.2-3.29 25.78-10.46 6.57-7.17 10.28-17.93 10.28-29.69 0-10.72-3.24-19.69-8.95-26.64-5.72-6.93-12.88-10.33-21.71-10.33zm-7.6 52.26c-2 2.98-4.3 3.27-5.89 3.49-1.59.22-3.87-.6-3.87-5.04l.09-5.77.04-16.62c0-4.57.33-5.68.9-7.17.57-1.49 1.85-1.2 1.85-1.2s3.92 1.11 6.37 6.16c2.46 5.04 3.31 9.05 3.31 15.11-.01 4.78-.8 8.05-2.8 11.04z" style="fill:#ed1c24"/><path d="M691.49 97.57v-1.5c3-4.25 4.81-9.25 4.75-14.69v-.12c-.06-2.81-.63-5.13-1.63-7-.81-1.69-1.88-3-3.13-4.06v-2.13c3.31-2.94 5.06-7.13 5.06-11.56h.06-.06c0-6.56-1.88-12.38-5.06-17.32v-1.56c.13.19.25.38.37.56 1.13 1.69 2.13 3.56 3 5.5.37.94.75 1.94 1.06 2.88.88 2.81 1.44 5.88 1.5 9.06h.06v1.76h-.06c-.06.44-.06.81-.12 1.25-.06.69-.19 1.38-.38 2-.19.69-.37 1.38-.62 2-1 2.5-2.63 4.75-4.75 6.5.19.19.37.31.56.5 1.31 1.06 2.38 2.5 3.31 4.25v.06c.12.31.31.56.44.88.12.31.25.62.31.94.56 1.56.88 3.37.94 5.5v.25c0 1.44-.13 2.94-.37 4.31-.25 1.38-.63 2.75-1.06 4.13-.99 2.74-2.43 5.3-4.18 7.61zm0-59.95c-2.25-3.19-5.06-6-8.19-8.38-4.38-3.25-9.44-5.75-14.69-7.25-1-.31-2.06-.56-3.06-.81-3.44-.75-6-1-9.5-1-1.31 0-2.75.06-4.13.19v.81c1.38-.12 2.75-.19 4.13-.19 9.19 0 19.07 3.19 26.69 8.94 3.44 2.56 6.44 5.69 8.75 9.25v-1.56zm0 30.45v2.13c-.44-.37-.94-.69-1.44-1 .5-.38 1-.76 1.44-1.13zm0 28v1.5c-2.44 3.25-5.5 6.06-8.75 8.38l-.69.5-.06.06h-.06c-.37.25-.69.5-1.13.75-.31.19-.69.44-1.12.69-1.94 1.19-4 2.25-6.06 3.19-3.13 1.44-6.31 2.5-9.63 3.37-3.25.81-6.63 1.38-10 1.63-.69.06-1.38.06-2.06.13v-.88c7.25-.31 14.63-2 21.32-5 2.88-1.31 5.63-2.81 8.25-4.63h.06c3.8-2.62 7.3-5.87 9.93-9.69zm-39.57-75.7v.81c-15.88 1.19-30.51 9.13-38.57 23.13-6.38-13.69-19-22.82-34.57-22.82-3.56 0-7.13.56-10.57 1.56v-.88l.06-.06c.5-.12 1.06-.31 1.69-.44 2.87-.69 5.81-1.06 8.81-1.06h.88v.06c4.94.06 9.63 1.13 13.94 2.88 1.63.75 3.25 1.56 4.75 2.44 1.56.94 3 2 4.38 3.13 4.38 3.56 8 8.13 10.69 13.38 4.44-7.13 10.57-12.57 17.63-16.32 1.62-.88 3.37-1.63 5.13-2.31 1.75-.69 3.5-1.31 5.31-1.81 3.19-.82 6.87-1.44 10.44-1.69zm0 95.02v.88c-16.13.56-31.88-5.75-40.01-20.94-.19.25-.31.5-.44.69-1.06 1.75-2.25 3.44-3.56 5.06-1.06 1.25-2.12 2.44-3.25 3.5-1.19 1.13-2.38 2.19-3.63 3.13-6 4.63-13.44 7.57-22.13 8.31.81.75 1.5 1.63 2.12 2.63 1.06 1.81 1.75 4.07 2 7.06 0 .69.06 1.38 0 2.06 0 .75-.06 1.44-.19 2.06-.5 3.5-2 6.81-4.63 9.38-.5.5-1.06 1-1.63 1.38-.56.44-1.12.81-1.69 1.12-2.06 1.19-4.38 1.94-6.69 2.31v-.88c3.5-.56 6.82-2 9.38-4.56 3.5-3.38 4.88-8.06 4.56-12.82-.44-5.75-2.69-8.56-5.56-10.44 13.25-.56 23.51-6.13 30.63-14.82 1.81-2.19 3.38-4.5 4.69-7 7.77 15.89 23.71 22.52 40.03 21.89zm-83.71-93.21v.88c-.44.13-.88.25-1.31.44-1.62-1.5-4-2.69-7.56-3.37-5.5-1.25-17 1.44-26.63 5-3.31 1.25-6.56 2.63-9.75 4.25-2.25 1.13-4.25 2.63-5.88 4.38l-.06.06C509.08 25.63 497.33 21 485.95 21c-1.38 0-2.75.06-4.13.19v-.89c1.06-.06 2.19-.12 3.25-.12v-.06h1.76v.06c3.56.06 7.19.56 10.69 1.5 1.25.31 2.44.69 3.69 1.13 5.88 2.12 11.38 5.44 15.82 9.75l.19-.12.75-.75c1.38-1.19 2.94-2.25 4.63-3.13 1.62-.81 3.25-1.56 4.88-2.25 1.69-.69 3.31-1.38 5-2 1.31-.5 2.69-1 4.13-1.44 1.44-.44 2.88-.88 4.25-1.31 7.38-2.06 14.57-3.19 18.63-2.31 1.88.38 3.44.88 4.75 1.44 1.13.56 2.06 1.19 2.88 1.81.34-.13.71-.26 1.09-.32zm0 120.97v.88c-1.19.19-2.31.25-3.44.25H563.9v-.06c-3.25 0-6.19-.13-9.19-.25h-.12c-2.88-.12-5.75-.19-8.44-.25v.06h-1.76v-.06c-1.25 0-2.63.06-4 .13-1.13.06-2.31.12-3.56.25-3.25.19-6.56.37-9.38.37h-.88v-.06c-2.19-.12-4.25-.62-6.06-1.5-.44-.19-.88-.44-1.31-.69-.37-.25-.81-.5-1.19-.81-1-.75-1.94-1.63-2.75-2.56-.75-.88-1.38-1.81-1.94-2.87-.5-1-.94-2.13-1.31-3.25-.13-.56-.31-1.13-.44-1.69-.13-.88-.25-1.81-.31-2.75h-.06v-1.76h.06c.06-1.06.19-2.12.44-3.19.06-.25.13-.56.25-.81.06-.25.12-.56.25-.81.19-.69.5-1.38.81-2 .75-1.56 1.75-2.88 2.88-4.06 1.13-1.13 2.38-2.06 3.75-3 .44-1.25.19-8.94.06-13-.94 1.12-2 2.19-3.06 3.13-1.63 1.5-3.38 2.88-5.25 4.13-8.69 5.81-19.38 8.81-29.57 9.38v-.88c14.32-.75 29.76-6.5 38.7-18.07 0 1.94.69 15.5-.31 16-2.75 1.75-4.94 3.81-6.44 6.75-1.06 2.19-1.63 4.63-1.63 7.31h-.06.06c0 4.13 1.31 8 3.81 10.88 2.75 3.25 6.63 5.25 11.5 5.25v.06c2.81 0 6.13-.19 9.38-.37 2.94-.19 5.94-.37 8.44-.37v.06-.06c2.88 0 6.13.12 9.44.25 3.25.13 6.5.31 10 .31h.06c1.12-.02 2.31-.08 3.44-.27zM481.81 20.3v.88c-12.44.88-24.32 5.82-32.82 15.25-2.75-20.57-19.88-33.45-40.2-33.45-3.37 0-7.31.12-11.44.25v-.87c4.13-.12 8.13-.25 11.44-.25h.88v.06c6.56.06 12.82 1.56 18.32 4.13 2.13 1 4.13 2.19 6.06 3.56 1.88 1.31 3.63 2.81 5.25 4.44 5.19 5.31 8.81 12.13 10.25 20.19 2.94-2.94 6.19-5.44 9.69-7.44 1.44-.88 3-1.63 4.56-2.37 1.56-.69 3.13-1.31 4.75-1.81 4.26-1.38 8.7-2.25 13.26-2.57zm0 95.09v.88c-1.06 0-2.12.06-3.19.06h-.88v-.06c-4.38-.06-8.38-.63-12.13-1.69-1.44-.37-2.88-.88-4.19-1.44-1.38-.5-2.69-1.12-3.94-1.81-4.31-2.31-8-5.38-11.07-9.06l-.06-.06c-.94-1.12-1.81-2.31-2.63-3.5-.81-1.25-1.56-2.5-2.19-3.81-3.31-6.31-5.19-13.69-5.56-21.57-.81.56-1.69 1.06-2.5 1.56-1.31.81-2.69 1.44-4.06 2.06-7.13 3.19-15.19 4.31-22.88 4.31h-.88v-.06H403.83c-.81-.06-1.56-.06-2.31-.13v.06c2.88 1 5.75 2.12 8 4.56 2.37 2.63 4 6.56 4 13.19v.88h-.06c-.13 3.63-1.25 6.5-3.06 8.63-1.88 2.38-4.56 3.88-7.63 4.94-1.81.63-3.69.94-5.44 1.13v-.88c1.69-.19 3.44-.5 5.19-1.06 5.81-2 10.13-5.88 10.13-13.63 0-12.69-6.13-15.13-12-17.13.06-.5 0-1.06 0-1.63 1.94.13 3.88.25 5.88.25 10.57 0 21.76-2.13 30.19-8.75.38 11.75 3.81 22.25 10.32 30.07 7.19 8.57 17.69 13.69 31.57 13.69v.06c1.08 0 2.14 0 3.2-.06zM263.88 24.06c7.81-2.88 16.07-3.44 24.19-1.13h.06c4.25 1.19 8.38 3.13 11.88 5.81 8.69 6.69 12.94 16.82 12.94 28.32v.13h-.06c0 4.25-.06 9.32 0 14.38.06 4.31.19 8.63.5 12.32 3.81 2.56 7.75 5.25 7.75 14.38 0 4.25-1.5 8.13-4.25 11-2.75 2.88-6.63 4.63-11.25 4.69-3.19 0-6.81-.19-10.5-.38-2.88-.19-5.81-.31-8.19-.37h-.12c-2.38 0-5.31.19-8 .37-4.19.31-7.88.63-11.13-.12-1.44-.31-2.69-.75-3.81-1.19v.94c.44.19.94.37 1.5.5.69.25 1.38.44 2.13.56 3.37.81 7.06.5 11.38.19h.19c2.56-.19 5.38-.38 7.63-.38h.24c2.31.06 5.19.19 8 .31l.13.06c1.81.06 3.63.19 5.44.25 1.75.06 3.5.13 5.13.13h.88v-.06c.94-.06 1.81-.13 2.63-.31 1.13-.25 2.19-.56 3.19-1 1-.37 1.94-.94 2.81-1.56.88-.56 1.69-1.25 2.38-2.06.81-.81 1.56-1.75 2.12-2.75.25-.44.44-.81.69-1.25.19-.37.37-.81.5-1.25.69-1.69 1.06-3.5 1.12-5.44h.06v-.88c0-4.75-1.06-7.88-2.63-10.13-1.44-2.13-3.31-3.5-5.19-4.69-.13-1.75-.25-3.63-.31-5.5-.06-2.06-.06-4.25-.13-6.38V57.06c0-8.44-2.25-16.25-6.81-22.44-.88-1.25-1.88-2.38-2.94-3.5-1.06-1.06-2.25-2.13-3.5-3.06-2.56-2-5.5-3.56-8.5-4.75-.62-.19-1.19-.44-1.81-.63-.62-.19-1.25-.37-1.81-.56l-.12-.06h-.19c-.13-.06-.25-.06-.37-.12l-.19-.06c-6.25-1.63-12.57-1.63-18.69-.19-1.25.25-2.5.63-3.69 1-.44.13-.88.31-1.25.44v.93h-.03zm133.47-21.7v.88c-1.25.06-2.5.06-3.75.13-4.5.19-9.06.31-14.63.31v.06l-24.57-.63c-4.19-.12-8 .69-11.13 2.94-3.56 2.56-5.69 6.38-5.94 11.82-.44 11 3.81 14.19 8.06 16.32.19 8.06.31 16.32.31 24.44 0 8.06-.12 16.25-.5 24.26-3.56 1.94-7.25 4.63-8 12.69-.06.75-.06 1.5-.06 2.19h-.06c0 8.13 4.88 15.25 13.38 16.07.69.06 1.19.06 1.5.06 5.94 0 11.75-.69 17.69-.69 7.38 0 14.63.63 22.01.63 1.69 0 3.63 0 5.69-.25v.88c-.13.06-.31.06-.44.06-1.88.19-3.69.19-5.25.19h-.88c-2.19-.06-4.38-.13-6.5-.19-4.81-.19-9.63-.44-14.63-.44-2.94 0-5.88.19-8.82.31-2.69.19-5.31.31-8 .37h-1.51c-.25 0-.56-.06-.94-.06h-.06c-1.25-.13-2.44-.37-3.5-.75-1.13-.38-2.12-.88-3.13-1.44-4.81-3-7.5-8.63-7.5-14.75v-.81h.06v-.31l.06-.19c0-.31 0-.63.06-.94.37-4.25 1.56-7.06 3.06-9.13 1.44-1.88 3.19-3.06 4.94-4 .13-3.94.25-7.75.31-11.63.12-4.06.12-8.13.12-12.13 0-4.06 0-8.19-.06-12.25-.06-3.88-.12-7.75-.25-11.63-2.06-1.13-4.13-2.5-5.63-4.94-1.62-2.56-2.63-6.25-2.38-11.94.06-2.88.69-5.31 1.75-7.38 1.06-2.06 2.63-3.81 4.5-5.13 1.69-1.19 3.5-2 5.44-2.5 1.94-.5 4.06-.69 6.25-.62h.12l23.56.56h.88c5.63 0 10.13-.12 14.57-.31h.06c1.24-.06 2.49-.06 3.74-.13zM166.73 21.37h1.81v-.07.06c13.5 0 25.51 3.56 34.26 10.94 2.06 1.69 3.88 3.56 5.56 5.63 2.88-6 9.31-8.75 15.07-11.25 9.63-4.19 29.7-13.19 38.32-1.81.75-.31 1.44-.56 2.13-.81v-.94c-.63.25-1.25.44-1.81.69-9.13-10.88-28.57-2.44-38.51 1.88l-.5.25-.19.06c-5.44 2.38-11.44 5-14.69 10.44-.94-1.19-2-2.25-3.13-3.31-.25-.19-.5-.44-.81-.75-.31-.25-.62-.5-.88-.75-5-4.19-11-7.13-17.75-9-1.25-.31-2.63-.62-3.94-.88-3.94-.81-8-1.19-12.25-1.25v-.06h-1.76v.06h-.94v.87h.01zm97.15 90.89h-.06c-2.25 1.06-4.69 1.56-7.25 1.56-2.75 0-5.75-.13-8.69-.31-2.25-.13-4.56-.19-7.88-.19v-.06c-2.5 0-5.75.19-8.94.31-3.25.13-6.44.31-9.75.31-4.75 0-8.63-2.13-11.25-5.5-2.06-2.69-3.25-6.13-3.44-9.82-1.31 1.56-2.69 3-4.19 4.31-9 8-21.38 12.25-35.7 12.44v.88c3.81-.06 7.44-.37 10.94-1 1.5-.25 3-.56 4.44-.94 1.44-.37 2.88-.75 4.25-1.25 6.31-2.13 11.94-5.31 16.63-9.5 1.06-.88 2.06-1.88 3-2.87.25 2.06.88 3.94 1.75 5.69.25.44.5.88.75 1.31.13.19.25.38.38.56l.5.69c1.31 1.69 2.88 3.06 4.69 4.06.5.25 1 .5 1.56.75.5.19 1.06.37 1.63.5 1 .31 2.06.44 3.19.5v.06h1.76c3-.06 5.94-.19 8.88-.31 1.31-.06 2.63-.13 3.81-.19 1.5-.06 3-.13 4.25-.13h.86c3.25 0 5.56.13 7.81.25h.06c1.44.06 2.88.12 4.38.19 1.44.06 2.88.13 4.25.13h.06c1.31 0 2.63-.13 3.94-.44 1.13-.19 2.25-.56 3.31-1.06h.06v-.93h.01zM65.33 3.11c2.5-.06 5.06-.06 7.69-.12h1c16.32.19 29.38 6.38 38.45 16.32 5.69 6.31 9.75 14 11.94 22.63 2-2.88 4.25-5.44 6.81-7.75 8.94-8.06 21.26-12.44 35.51-12.82v-.88c-3.63.12-7.13.44-10.5 1.06-1.5.25-3 .56-4.5.94-1.44.44-2.88.81-4.25 1.31-6.44 2.19-12.07 5.44-16.88 9.75-1.81 1.69-3.56 3.5-5.13 5.5-.25.31-.5.62-.69.88-1.63-5.63-4.06-10.82-7.19-15.5-.69-1-1.44-2-2.13-2.94-.75-.94-1.56-1.81-2.38-2.75-6.63-7.25-15.32-12.57-25.82-15.07-2.06-.44-4.13-.81-6.31-1.13-2.19-.25-4.44-.37-6.75-.44h-1.19c-2.69.06-5.19.06-7.69.12v.89h.01zm101.4 112.22h-1.19v.06-.06c-13.44 0-25.51-3.31-34.45-10.38-5.31-4.25-9.44-9.69-12-16.38-2 3.56-4.38 6.88-7.06 9.81-9.32 9.94-22.57 15.69-38.88 15.57H72.22c-2.31-.06-4.56-.13-6.88-.19v.88h.25c2.19.06 4.38.13 6.63.19H73.15c11.88.06 22.13-2.88 30.51-8.31 1.63-1.06 3.19-2.19 4.69-3.44 1.44-1.25 2.88-2.56 4.19-4l.13-.13c2-2.12 3.81-4.44 5.38-6.94.31-.5.63-1 .94-1.44 1.81 4.19 4.31 7.94 7.31 11.13.62.69 1.31 1.38 2.06 2.06.75.62 1.44 1.25 2.19 1.88 5.13 4 11.19 6.88 17.94 8.56 1.25.31 2.63.63 4 .88 3.88.69 7.94 1.06 12.19 1.13v.06h1.76v-.06h.31v-.88h-.02zM12.69 34.31c-.69-.38-1.31-.81-1.88-1.19-4.31-3.25-6.5-8.56-6.5-13.88 0-4.81 1.31-8.63 4-11.56C11.19 4.55 15.06 2.99 20 2.99h.19c3.56 0 6.88.19 10.19.37 3.13.13 6.19.31 8.69.31 6.19.06 12.44-.12 18.69-.31 2.5-.06 5-.19 7.56-.25v-.87c-2.5.06-4.94.19-7.38.25h-.38c-6.17.19-12.36.37-18.49.37-2.37-.06-5.37-.18-8.44-.37h-.25l-.68-.06c-2.81-.12-5.75-.25-8.81-.31h-1.76v.06c-1.13 0-2.25.12-3.25.37-.69.12-1.31.31-1.94.5-1.19.37-2.31.94-3.38 1.62-1.06.69-2 1.5-2.88 2.44-1.18 1.25-2.11 2.75-2.8 4.44-.25.44-.38.94-.56 1.44-.13.5-.31 1.06-.38 1.56-.25 1.19-.44 2.5-.5 3.81v.88c0 3.19.75 6.44 2.31 9.31.31.56.63 1.13 1 1.63.56.81 1.19 1.5 1.88 2.19.31.31.63.62 1 .88.06.06.19.13.31.25s.19.19.37.31c.44.31.88.62 1.38.94l.13.06c0 3.25-.06 6.5-.06 9.75-.19 12.69-.31 25.13-.13 37.76-.88.56-1.75 1.19-2.5 1.88-.88.81-1.69 1.69-2.44 2.63-.94 1.3-1.69 2.74-2.25 4.3-.5 1.56-.81 3.19-.88 5-.06 2.75.19 5.19.75 7.25.56 2.12 1.44 4 2.63 5.56 1.5 1.94 3.25 3.38 5.31 4.31 2 .94 4.25 1.38 6.75 1.44h.06c4.75.06 8.88-.13 13.07-.37h.32c3.25-.13 6.56-.31 9.69-.31h.62c4.81 0 10.19.19 15.5.38h.75c2.13.12 4.19.19 6.31.25v-.88c-2.06-.06-4.19-.13-6.31-.19-5.56-.25-11.19-.44-16.25-.44-3.38 0-7 .19-10.57.38-4.25.19-8.38.37-13.13.31H19c-4.75-.06-8.56-1.69-11.38-5.38-2.25-3-3.38-6.94-3.19-12.25.12-3.44 1.19-6.38 3-8.82 1.31-1.88 3.06-3.37 5.06-4.56-.23-16.24.08-32.12.2-48.5z" style="fill-rule:evenodd;clip-rule:evenodd"/><path d="M24.82 132.79c.12.11.18.24.18.39v4.5c0 .16-.06.29-.18.39-.12.11-.26.16-.44.16h-6.41c-.17 0-.26.08-.26.23v26.07c0 .16-.06.29-.18.39-.12.11-.26.16-.44.16h-6c-.17 0-.32-.05-.44-.16s-.18-.24-.18-.39v-26.07c0-.15-.09-.23-.26-.23H4.08c-.17 0-.32-.05-.44-.16s-.18-.24-.18-.39v-4.5c0-.15.06-.29.18-.39.12-.11.26-.16.44-.16h20.3c.17 0 .32.05.44.16zM29.82 162.97c-1.88-1.67-2.82-3.9-2.82-6.68v-14.84c0-2.78.94-5.01 2.82-6.68s4.39-2.51 7.54-2.51c3.14 0 5.66.84 7.56 2.51s2.84 3.9 2.84 6.68v14.84c0 2.78-.95 5.01-2.84 6.68s-4.42 2.5-7.56 2.5c-3.15 0-5.66-.83-7.54-2.5zm-.13-34.03c-.77-.7-1.15-1.57-1.15-2.62 0-1.08.38-1.96 1.13-2.64.75-.68 1.73-1.02 2.92-1.02 1.2 0 2.17.34 2.92 1.02.75.68 1.13 1.56 1.13 2.64 0 1.05-.38 1.93-1.15 2.62-.77.7-1.73 1.04-2.9 1.04s-2.13-.34-2.9-1.04zm9.97 30.01c.58-.6.87-1.4.87-2.39v-15.4c0-.99-.29-1.79-.87-2.39-.58-.6-1.35-.9-2.31-.9s-1.72.3-2.28.9c-.56.6-.85 1.4-.85 2.39v15.4c0 .99.28 1.79.85 2.39.56.6 1.32.9 2.28.9.96.01 1.73-.29 2.31-.9zm-.54-30.01c-.77-.7-1.15-1.57-1.15-2.62 0-1.08.38-1.96 1.13-2.64.75-.68 1.73-1.02 2.92-1.02 1.2 0 2.17.34 2.92 1.02.75.68 1.13 1.56 1.13 2.64 0 1.05-.38 1.93-1.15 2.62-.77.7-1.73 1.04-2.9 1.04s-2.13-.34-2.9-1.04zM69.5 162.78c-1.91 1.55-4.39 2.32-7.43 2.32h-9.69c-.17 0-.32-.05-.44-.16s-.18-.24-.18-.39v-31.36c0-.15.06-.29.18-.39.12-.11.26-.16.44-.16h8.56c3.42 0 6.09.74 8.02 2.23 1.93 1.48 2.9 3.7 2.9 6.63 0 3.06-1.16 5.29-3.49 6.68-.14.09-.15.19-.05.28 2.7 1.73 4.05 4.3 4.05 7.7 0 2.86-.96 5.07-2.87 6.62zm-10.51-24.31v7.28c0 .15.09.23.26.23h1.85c1.16 0 2.07-.33 2.72-1 .65-.66.97-1.6.97-2.81 0-1.27-.32-2.24-.95-2.92-.63-.68-1.55-1.02-2.74-1.02h-1.85c-.18.01-.26.09-.26.24zm5.17 19.86c.65-.74.97-1.79.97-3.15 0-1.36-.32-2.44-.97-3.25-.65-.8-1.52-1.21-2.61-1.21h-2.31c-.17 0-.26.08-.26.23v8.26c0 .16.09.23.26.23h2.26c1.13 0 2.01-.37 2.66-1.11zM93.44 162.78c-1.91 1.55-4.39 2.32-7.43 2.32h-9.69c-.17 0-.32-.05-.44-.16s-.18-.24-.18-.39v-31.36c0-.15.06-.29.18-.39.12-.11.26-.16.44-.16h8.56c3.42 0 6.09.74 8.02 2.23 1.93 1.48 2.9 3.7 2.9 6.63 0 3.06-1.16 5.29-3.49 6.68-.14.09-.15.19-.05.28 2.7 1.73 4.05 4.3 4.05 7.7 0 2.86-.96 5.07-2.87 6.62zm-10.51-24.31v7.28c0 .15.09.23.26.23h1.85c1.16 0 2.07-.33 2.72-1 .65-.66.97-1.6.97-2.81 0-1.27-.32-2.24-.95-2.92-.63-.68-1.55-1.02-2.74-1.02h-1.85c-.18.01-.26.09-.26.24zm5.17 19.86c.65-.74.97-1.79.97-3.15 0-1.36-.32-2.44-.97-3.25-.65-.8-1.52-1.21-2.61-1.21h-2.31c-.17 0-.26.08-.26.23v8.26c0 .16.09.23.26.23h2.26c1.13 0 2.01-.37 2.66-1.11zM127.22 132.63h5.95c.17 0 .32.05.44.16s.18.24.18.39v31.36c0 .16-.06.29-.18.39-.12.11-.27.16-.44.16h-6c-.17 0-.32-.05-.44-.16s-.18-.24-.18-.39v-20.83c0-.12-.03-.19-.1-.19s-.14.05-.21.14l-4 6.4c-.17.25-.31.37-.41.37-.1 0-.24-.12-.41-.37l-4-6.4c-.07-.09-.14-.14-.21-.14-.07 0-.1.06-.1.19v20.83c0 .16-.06.29-.18.39-.12.11-.26.16-.44.16h-6c-.17 0-.32-.05-.44-.16s-.18-.24-.18-.39v-31.36c0-.15.06-.29.18-.39.12-.11.26-.16.44-.16h5.9c.34 0 .6.12.77.37l4.56 7.38c.1.12.21.12.31 0l4.41-7.38c.15-.25.4-.37.78-.37zM138.32 164.94c-.12-.11-.18-.24-.18-.39v-31.36c0-.15.06-.29.18-.39.12-.11.26-.16.44-.16h6c.17 0 .32.05.44.16s.18.24.18.39v31.36c0 .16-.06.29-.18.39-.12.11-.26.16-.44.16h-6c-.18 0-.32-.05-.44-.16zM164.77 132.79c.12-.11.26-.16.44-.16h5.95c.17 0 .32.05.44.16s.18.24.18.39v31.36c0 .16-.06.29-.18.39-.12.11-.27.16-.44.16h-6.77c-.34 0-.56-.15-.67-.46l-6.36-17.95c-.03-.09-.09-.13-.18-.12-.09.02-.13.07-.13.16l.05 17.81c0 .16-.06.29-.18.39-.12.11-.27.16-.44.16h-5.95c-.17 0-.32-.05-.44-.16s-.18-.24-.18-.39v-31.36c0-.15.06-.29.18-.39.12-.11.26-.16.44-.16h6.72c.34 0 .56.15.67.46l6.41 17.95c.03.09.09.13.18.12.08-.02.13-.07.13-.16l-.05-17.81c0-.15.06-.28.18-.39zM196.6 132.79c.12.11.18.24.18.39v4.5c0 .16-.06.29-.18.39-.12.11-.26.16-.44.16h-6.41c-.17 0-.26.08-.26.23v26.07c0 .16-.06.29-.18.39-.12.11-.26.16-.44.16h-6c-.17 0-.32-.05-.44-.16s-.18-.24-.18-.39v-26.07c0-.15-.09-.23-.26-.23h-6.15c-.17 0-.32-.05-.44-.16s-.18-.24-.18-.39v-4.5c0-.15.06-.29.18-.39.12-.11.26-.16.44-.16h20.3c.2 0 .34.05.46.16zM226.46 133.83c1.47.83 2.61 2 3.41 3.5.8 1.5 1.2 3.21 1.2 5.13 0 2.88-.85 5.18-2.56 6.91-1.71 1.73-3.95 2.6-6.72 2.6h-3.84c-.17 0-.26.08-.26.23v12.34c0 .16-.06.29-.18.39-.12.11-.27.16-.44.16h-6c-.17 0-.32-.05-.44-.16s-.18-.24-.18-.39v-31.4c0-.15.06-.29.18-.39.12-.11.26-.16.44-.16h10.36c1.89-.01 3.57.41 5.03 1.24zm-3.61 11.9c.67-.76 1-1.8 1-3.13 0-1.36-.33-2.43-1-3.2-.67-.77-1.55-1.16-2.64-1.16h-2.26c-.17 0-.26.08-.26.23v8.16c0 .16.09.23.26.23h2.26c1.09.01 1.97-.37 2.64-1.13zM234.54 164.94c-.12-.11-.18-.24-.18-.39v-31.36c0-.15.06-.29.18-.39.12-.11.26-.16.44-.16h6c.17 0 .32.05.44.16s.18.24.18.39v31.36c0 .16-.06.29-.18.39-.12.11-.26.16-.44.16h-6c-.18 0-.32-.05-.44-.16zM245.1 164.94c-.12-.11-.18-.24-.18-.39v-4.68c0-.25.05-.48.15-.7l10.97-20.64c.03-.09.03-.16 0-.21-.03-.05-.1-.07-.2-.07h-10.3c-.17 0-.32-.05-.44-.16s-.18-.24-.18-.39v-4.5c0-.15.06-.29.18-.39.12-.11.26-.16.44-.16h17.64c.17 0 .32.05.44.16s.18.24.18.39v4.69c0 .22-.05.45-.15.7l-10.97 20.64c-.03.09-.03.16 0 .21.03.05.1.07.21.07h10.3c.17 0 .32.05.44.16s.18.24.18.39v4.5c0 .16-.06.29-.18.39-.12.11-.26.16-.44.16h-17.64c-.19-.01-.33-.06-.45-.17zM266.22 164.94c-.12-.11-.18-.24-.18-.39v-4.68c0-.25.05-.48.15-.7l10.97-20.64c.03-.09.03-.16 0-.21-.03-.05-.1-.07-.21-.07h-10.3c-.17 0-.32-.05-.44-.16s-.18-.24-.18-.39v-4.5c0-.15.06-.29.18-.39.12-.11.26-.16.44-.16h17.64c.17 0 .32.05.44.16s.18.24.18.39v4.69c0 .22-.05.45-.15.7l-10.97 20.64c-.03.09-.03.16 0 .21.03.05.1.07.21.07h10.3c.17 0 .32.05.44.16s.18.24.18.39v4.5c0 .16-.06.29-.18.39-.12.11-.26.16-.44.16h-17.64c-.18-.01-.32-.06-.44-.17zM302.8 164.59l-.82-4.45c0-.15-.1-.23-.31-.23h-6.51c-.21 0-.31.08-.31.23l-.82 4.45c-.03.34-.26.51-.67.51h-6c-.44 0-.62-.2-.51-.6l7.54-31.36c.07-.34.29-.51.67-.51h6.92c.38 0 .6.17.67.51l7.48 31.36.05.19c0 .28-.19.42-.56.42h-6.15c-.42-.01-.64-.18-.67-.52zm-6.72-9.74h4.61c.17 0 .24-.08.21-.23l-2.41-12.66c-.03-.09-.09-.14-.15-.14-.07 0-.12.05-.15.14l-2.31 12.66c0 .15.06.23.2.23zM315.13 164.01c-.77-.7-1.15-1.57-1.15-2.62 0-1.08.38-1.96 1.13-2.64.75-.68 1.73-1.02 2.92-1.02 1.2 0 2.16.34 2.9 1.02.73.68 1.1 1.56 1.1 2.64 0 1.05-.38 1.92-1.13 2.62-.75.7-1.71 1.04-2.87 1.04-1.17 0-2.14-.35-2.9-1.04zm.15-10.21c-.12-.11-.18-.24-.18-.39l-.77-20.23c0-.15.06-.29.18-.39.12-.11.26-.16.44-.16h6c.17 0 .32.05.44.16s.18.24.18.39l-.72 20.23c0 .16-.06.29-.18.39-.12.11-.26.16-.44.16h-4.51c-.18.01-.32-.05-.44-.16z"/></svg>