<?xml version="1.0" encoding="UTF-8"?><svg id="Réteg_1" xmlns="http://www.w3.org/2000/svg" viewBox="0 0 410.4 235.74"><defs><style>.cls-1{fill:#f3aa00;}.cls-1,.cls-2,.cls-3,.cls-4{fill-rule:evenodd;}.cls-2{fill:#575756;}.cls-3{fill:#c6c6c6;}.cls-4{fill:#fff;}</style></defs><path class="cls-4" d="M332.38,96.7l-5.72,.94,.74,2.64,.03,.09c1.34-1.61,3.03-2.87,4.95-3.67m-26.88,57.54l-8.77,6.56c-7.75,5.8-16.09,10.85-24.7,15.26-8.87,4.55-18.08,8.45-27.46,11.82-8.41,3.02-16.99,5.61-25.65,7.81-8.39,2.13-16.88,3.9-25.42,5.31-20.45,3.36-41.38,4.73-62.08,3.35l-1.81-.12-.65,1.69c-.09,.23-.18,.46-.26,.68-2.14,5.43-5.33,10.31-9.4,14.49-6.38,6.55-14.4,10.33-23.38,11.81-9.4,1.55-18.61,.33-26.79-4.75-8.08-5.02-13.09-12.52-15.11-21.77-1.88-8.59-1.06-17.08,2.48-25.13l.69-1.57-1.24-1.19c-3.95-3.78-7.32-8.17-9.73-13.09-1.96-4.01-3.23-8.35-3.69-12.8-.21-2.03-.26-4.08-.15-6.12l.17-3.11-3.07,.57c-.14,.03-.29,.05-.43,.08-3.62,.59-7.2,0-10.34-1.92h-.02c-1.79-1.11-3.33-2.59-4.43-4.39-.98-1.59-1.57-3.36-1.77-5.22-.26-2.49,.15-5.01,.87-7.4h0l.57-1.79,1.38-4.35-2.97-.34c-4.75-.54-9.03-2.5-12.71-5.54C4.11,108.5,.94,102.29,.19,95.12c-1.1-10.51,2.58-19.85,9.24-27.88h0c6.7-8.09,15.9-13.41,26.26-15.11,7.58-1.25,15.14-.44,21.86,3.45,3.35,1.94,6.28,4.61,8.35,7.89l1.83,2.9,11.07-13.72c3.47-4.3,7.92-8.2,13.55-9.13,3.77-.62,7.51,.04,10.71,2.18,3.24,2.17,5.3,5.5,5.83,9.36l.3,2.12h2.14c3.44,0,6.62,1.17,9.11,3.56,2.02,1.94,3.3,4.41,3.72,7.19l.42,2.76,2.69-.78c.82-.24,1.66-.42,2.5-.56,2.53-.42,5.22-.37,7.68,.39l1.15,.35,.98-.69c2.34-1.64,4.91-2.74,7.74-3.2,3.15-.52,6.45-.24,9.23,1.44l1.31,.79,1.29-.83c1.23-.79,2.52-1.5,3.83-2.14h.01c.28-.15,.57-.28,.86-.41l1.09-.5,.27-1.16c.68-2.89,2.84-5.74,4.6-8.09l.05-.06h0l.05-.07c1.24-1.58,2.48-3.16,3.7-4.76l.02-.02c2.46-3.25,5.69-5.78,9.8-6.46,2.84-.47,5.69-.05,8.2,1.38,3.14,1.79,5.1,5.04,5.15,8.66l.14,8.67,1.7,.38,2.93-8.27c.94-2.66,2.45-5.03,4.44-7.02,2.9-2.9,6.52-4.66,10.55-5.32,4.48-.74,8.98,.04,12.34,3.26,1.43,1.38,2.49,3.03,3.13,4.91l.73,2.16,2.21-.57c.57-.15,1.15-.27,1.73-.37,3.56-.58,7.19-.04,10.13,2.14l1.82,1.34,1.49-1.7c2.7-3.09,6.21-5.01,10.26-5.67,1.52-.25,3.08-.34,4.62-.2l2.73,.25-.33-16.05c0-.26,.12-.48,.33-.62,.22-.14,.47-.15,.7-.03l31.62,16.36L332.28,2.82c.17-.24,.46-.35,.75-.27,.29,.07,.49,.31,.53,.6l4.36,37.01L406.84,.1c.29-.17,.65-.11,.88,.13,.23,.25,.25,.61,.06,.89l-65.12,93.67c-.11,.16-.27,.26-.47,.29l-3.94,.65c5.82,.41,10.83,4.76,11.81,10.77,1.15,7.02-3.61,13.66-10.63,14.81-3.15,.52-6.33-.14-9-1.84l-.52,3.64h0c-.45,2.79-.88,5.57-1.32,8.35-.11,.7-.22,1.39-.33,2.09l-.8,5.09c-.17,1.06-.34,2.11-.52,3.17-1.23,7.42-7.05,11.54-14.15,12.71-2.06,.34-4.19,.36-6.24-.07l-1.08-.23Z"/><path class="cls-3" d="M332.38,96.7l-5.72,.94,.74,2.64,.03,.09c1.34-1.62,3.03-2.87,4.95-3.67M405.34,4.63l3.99-2.32c.29-.17,.65-.11,.88,.13,.23,.25,.25,.61,.06,.89l-65.12,93.67c-.11,.16-.27,.26-.47,.3l-.88,.14c-1.67-.97-3.56-1.57-5.55-1.71l3.94-.65c.2-.03,.35-.13,.47-.29L405.34,4.63Zm-71.42,1.58l.85-1.18c.17-.24,.46-.35,.75-.27,.29,.07,.49,.31,.53,.6l3.96,33.59-2.09,1.21-4-33.95Zm-104.24,40.3c.58,.39,1.14,.84,1.67,1.35,1.32,1.26,2.31,2.76,2.96,4.45l-1.59,.41-.73-2.16c-.51-1.51-1.29-2.86-2.31-4.05Zm-35.16,1.24c2.9,1.83,4.68,4.96,4.74,8.41l.08,4.78-.73,2.06-1.7-.38-.14-8.67c-.04-2.31-.85-4.48-2.25-6.2Zm-73.29,13.83c.59,.4,1.16,.86,1.69,1.37,2.01,1.93,3.29,4.39,3.71,7.14l-2.07,.6-.42-2.76c-.36-2.39-1.36-4.55-2.92-6.35Zm-15.53-13.56c3.13,2.15,5.12,5.4,5.67,9.16h-2.18l-.3-2.11c-.37-2.67-1.47-5.09-3.19-7.05Zm-42.78,11.72c2.12,1.64,3.98,3.62,5.43,5.89l-.61,.76-1.83-2.9c-.86-1.36-1.86-2.61-2.98-3.75ZM24.76,120.84c-4.7-.56-8.95-2.51-12.59-5.52-.68-.57-1.33-1.16-1.94-1.77,3.55,2.79,7.64,4.59,12.16,5.1l2.97,.34-.59,1.86Zm17.66,25.25l-.43,.08c-.14,.03-.29,.05-.43,.08-3.62,.59-7.2,0-10.34-1.92h-.02c-1.17-.73-2.23-1.61-3.14-2.64,.21,.15,.43,.29,.65,.42h.02c3.14,1.94,6.72,2.53,10.34,1.93,.14-.02,.29-.05,.43-.08l3.07-.57-.14,2.7Zm265.57,10.36l-8.77,6.56c-7.75,5.8-16.09,10.85-24.7,15.26-8.87,4.55-18.08,8.45-27.46,11.82-8.41,3.02-16.99,5.61-25.65,7.81-8.39,2.13-16.88,3.9-25.42,5.31-20.45,3.36-41.38,4.73-62.07,3.35l-1.81-.12-.65,1.69c-.09,.23-.18,.46-.27,.68-2.14,5.43-5.33,10.31-9.4,14.49-6.38,6.55-14.4,10.33-23.38,11.81-9.4,1.55-18.61,.33-26.79-4.75-2.19-1.36-4.15-2.9-5.89-4.61,1.07,.85,2.2,1.65,3.4,2.4,8.18,5.08,17.39,6.29,26.79,4.75,8.97-1.47,17-5.26,23.38-11.81,4.07-4.18,7.26-9.06,9.4-14.49,.09-.23,.18-.45,.26-.68l.65-1.69,1.81,.12c20.7,1.38,41.62,.01,62.07-3.35,8.54-1.4,17.03-3.18,25.42-5.31,8.66-2.2,17.24-4.79,25.65-7.81,9.38-3.37,18.59-7.27,27.46-11.82,8.61-4.42,16.95-9.46,24.7-15.26l8.77-6.56,1.08,.23c2.05,.43,4.18,.41,6.24,.07,7.09-1.17,12.92-5.29,14.15-12.71,.18-1.06,.35-2.11,.52-3.17l.8-5.09c.11-.7,.22-1.39,.33-2.09,.43-2.78,.87-5.56,1.32-8.34h0l.52-3.65c2.66,1.69,5.85,2.35,9,1.84,7.02-1.15,11.79-7.79,10.63-14.81-.4-2.45-1.47-4.62-2.99-6.36,2.82,1.92,4.88,4.94,5.48,8.57,1.15,7.02-3.61,13.66-10.63,14.81-3.15,.52-6.33-.14-9-1.84l-.52,3.64h0c-.45,2.79-.88,5.57-1.32,8.35-.11,.7-.22,1.4-.33,2.09l-.8,5.09c-.17,1.06-.34,2.11-.52,3.17-1.23,7.42-7.05,11.54-14.15,12.71-2.06,.34-4.19,.36-6.24-.07l-1.08-.23Z"/><polygon class="cls-1" points="283.58 90.27 282.85 55.29 304.35 66.42 322.85 40.72 325.57 63.82 360.73 43.38 333.88 82 283.58 90.27"/><path class="cls-2" d="M291.81,154.21c-23.36,17.48-59.01,31.99-99.64,38.67-22.91,3.76-44.77,4.62-64.19,2.96v-.04l.22-.74,.2-.76,.21-.78,.2-.79,.22-.82,.21-.84,.2-.86,.22-.88,.22-.9,.23-.93,.22-.93,.08-.36c18.25,1.34,38.99,.43,60.73-3.15,34.14-5.61,64.5-16.7,85.96-30.08l.27,.18,.67,.39,.7,.34,.73,.28,.74,.26,.76,.2,.79,.16,.79,.13,.82,.08,.81,.05,.84,.02h.84l.87-.06,.88-.09,.89-.09,.91-.14,.69-.12,.7-.13,.68-.16,.32-.07Zm-227.11,21.04c-8.09-6.58-13.04-14.49-13.98-23.48-1.09-10.59,3.46-21.5,12.41-31.91l5,9.13c-4.94,6.99-7.3,14.09-6.59,21,.68,6.71,4.27,12.66,10.17,17.72l-.08,.06-.48,.42-.47,.43-.46,.43-.47,.45-.46,.42-.43,.44-.44,.45-.43,.45-.41,.46-.41,.46-.41,.47-.4,.46-.39,.47-.38,.48-.38,.5-.37,.49-.14,.2Zm39.69,17.1c-7-1.52-13.45-3.44-19.3-5.72l.19-.25,.36-.48,.39-.5,.4-.48,.42-.47,.45-.47,.47-.45,.5-.45,.5-.44,.54-.44,.29-.25,.35-.24,.34-.24,.36-.26,.37-.23,.4-.25,.38-.25,.39-.24,.42-.24,.41-.23,.42-.23,.31-.15c4.07,1.36,8.45,2.54,13.12,3.54l-.04,.19-.2,.86-.21,.86-.2,.83-.21,.82-.2,.79-.21,.78-.21,.76-.2,.76-.21,.72-.21,.72-.21,.69-.2,.65Zm-13.32-84.23c-1.84,1.21-3.61,2.43-5.29,3.68l-4.49-8.25c3.66-2.63,7.61-5.21,11.82-7.68l-2.04,12.25Zm44.22,35.79l8.94-1.47c6.19-1.02,8.76-3.76,7.78-8.25-.55-2.56-2.59-3.55-6.09-2.98l-8.13,1.34-2.5,11.36Zm-2.92,13.31l-4.96,22.81c-2.48,11.3-4.61,19.14-6.35,23.54-1.74,4.41-4.27,8.33-7.64,11.78-4.9,5.04-11.18,8.18-18.83,9.43-8.07,1.33-15.1,.12-21.12-3.62-6.02-3.73-9.82-9.25-11.41-16.53-2.12-9.75,0-18.9,6.33-27.52,3.43-4.63,8.11-8.7,14.04-12.15,5.91-3.46,12.03-5.71,18.36-6.75,3.06-.5,5.65-.28,7.75,.63,2.12,.92,3.41,2.39,3.84,4.39,.46,2.09-.18,3.95-1.89,5.57-1,.96-3.09,1.84-6.31,2.64-7.52,1.89-13.36,4.47-17.57,7.79-3.48,2.75-5.98,6.02-7.5,9.78-1.54,3.79-1.9,7.56-1.07,11.34,.84,3.83,2.6,6.69,5.32,8.59,2.72,1.9,5.96,2.54,9.69,1.92,4.71-.77,8.38-3.22,11.05-7.35,2.66-4.12,5.07-11.07,7.22-20.84l10.42-47.5-6.31,1.04c-.32,.05-.62,.1-.92,.13-.81,.22-1.64,.42-2.55,.57l-19.21,3.16c-5.09,.84-8.76,.77-10.97-.16-2.22-.94-4.39-3.32-6.51-7.12l-19.3-35.25-9.18,28.82c-1.76,5.66-4.79,8.83-9.08,9.54-1.77,.29-3.34,.02-4.72-.83-1.4-.83-2.16-2-2.31-3.44-.12-1.15,.08-2.56,.56-4.17l.54-1.65,11.53-36.25c1.72-5.51,2.5-9.24,2.3-11.21-.17-1.71-1.16-3.08-2.92-4.06-1.77-.97-3.77-1.28-5.96-.92-3.94,.65-7.32,2.74-10.15,6.26-2.83,3.53-4.06,7.16-3.68,10.89,.43,4.07,3.14,6.51,8.13,7.31,3.03,.45,4.67,1.87,4.92,4.24,.21,1.96-.45,3.73-2.01,5.29-1.54,1.55-3.57,2.55-6.08,2.97-4.81,.79-9.14-.41-12.97-3.57-3.83-3.17-6-7.32-6.55-12.5-.8-7.71,1.66-14.94,7.36-21.75,5.71-6.78,12.82-10.87,21.3-12.27,6.33-1.04,11.8-.23,16.4,2.44,4.6,2.69,7.15,6.57,7.69,11.63,.36,3.59-.22,7.81-1.75,12.64l-1.57,4.83,27.39-33.99c2.96-3.67,5.77-5.72,8.49-6.17,1.85-.3,3.46,0,4.8,.89,1.36,.92,2.12,2.21,2.29,3.9,.22,2.08-1.07,4.87-3.89,8.37l-24.94,30.85,15.36,28.27c1.35,2.44,3.8,3.35,7.36,2.76l18.76-3.08c.91-.15,1.75-.25,2.51-.26l25.86-4.25c7.41-1.22,13.14-.87,17.22,1.06,4.08,1.91,6.69,5.49,7.84,10.71,1.37,6.36-.24,12-4.83,16.95-3.33,3.59-9.13,6.07-17.43,7.43l-12.21,2.01Zm137.81-10.04c-.61,3.65-3.18,5.85-7.7,6.59l-24.49,4.03c-3.94,.65-5.59-.95-4.96-4.79,.42-2.5,2.14-5.17,5.16-8.01l16.23-15.31-10.57,1.74c-3.99,.66-5.69-.8-5.09-4.37,.6-3.6,3.15-5.78,7.68-6.52l22.01-3.62c1.94-.32,3.39,.04,4.33,1.08,.94,1.04,1.25,2.49,.93,4.39-.32,2-1.42,3.87-3.31,5.67l-17.57,16.85,12.24-2.01c3.99-.66,5.69,.77,5.11,4.3Zm-41.03,6.74c-.6,3.65-3.16,5.85-7.69,6.59l-24.5,4.03c-3.94,.65-5.59-.95-4.95-4.79,.41-2.5,2.14-5.17,5.17-8.01l16.23-15.31-10.57,1.74c-4.01,.66-5.7-.79-5.1-4.37,.6-3.6,3.16-5.78,7.68-6.52l22.02-3.62c1.95-.32,3.39,.04,4.33,1.08,.93,1.04,1.24,2.49,.94,4.39-.33,2-1.43,3.87-3.31,5.67l-17.58,16.85,12.23-2.01c3.99-.66,5.69,.77,5.1,4.3Zm-40.3-17.31l-3.84,23.27c-.38,2.23-1.39,4.13-3.02,5.74-1.63,1.59-3.62,2.58-5.96,2.96-2.43,.4-4.23,.02-5.38-1.14-1.15-1.16-1.54-2.9-1.15-5.22l3.78-22.87c.39-2.31,1.39-4.27,3-5.89,1.62-1.62,3.65-2.61,6.08-3.01,2.33-.38,4.08-.02,5.27,1.12,1.19,1.13,1.6,2.81,1.22,5.04Zm-11.96-14.2c.3-1.81,1.25-3.48,2.86-5.06,1.61-1.58,3.36-2.52,5.25-2.83,1.95-.32,3.49,.07,4.63,1.16,1.14,1.1,1.57,2.57,1.25,4.42-.31,1.85-1.24,3.54-2.82,5.07-1.58,1.52-3.33,2.44-5.29,2.76-1.89,.31-3.42-.08-4.59-1.18-1.15-1.08-1.6-2.53-1.29-4.34Zm69.23-41.44l8.26-18.93c1.53-3.49,3.97-5.52,7.31-6.07,2.05-.34,3.68-.13,4.91,.61,1.22,.74,1.67,2.07,1.36,3.97-.18,1.07-.52,2.11-1.03,3.14l-14.64,30.19c-2.81,5.83-5.25,9.81-7.31,11.94-2.98,3.15-7.07,5.15-12.26,6.01-2.48,.41-4.51,.31-6.06-.29-1.95-.77-2.76-2.23-2.4-4.4,.38-2.32,1.52-3.96,3.37-4.94,.53-.31,2.17-.82,4.93-1.49,1.79-.48,2.75-1.22,2.92-2.23,.1-.65-.11-2.16-.67-4.55l-5.37-23.22c-.24-1.09-.24-2.35,0-3.78,.27-1.71,1.35-3.28,3.19-4.7,1.68-1.27,3.46-2.06,5.35-2.37,3.36-.55,5.27,.89,5.74,4.32l2.38,16.79Zm-37.32-21.57c.39-2.33,1.38-4.29,3-5.91,1.62-1.62,3.64-2.63,6.06-3.03,2.39-.39,4.16-.03,5.33,1.08,1.15,1.13,1.55,2.82,1.17,5.09l-6.04,36.41c-.37,2.22-1.37,4.14-3.01,5.73-1.64,1.6-3.61,2.59-5.94,2.97-2.45,.4-4.23,.03-5.39-1.11-1.15-1.13-1.54-2.88-1.15-5.25l5.97-35.99Zm-24.03-7.41c1.06-.17,2-.04,2.8,.41,.79,.45,1.11,1.16,.95,2.14-.19,1.21-1.66,3.09-4.4,5.66-1.66,1.41-3.29,2.82-4.9,4.29-1.61,1.46-2.91,2.26-3.88,2.42-1.66,.27-2.36-.28-2.13-1.67,.11-.7,1.17-2.38,3.17-5.05,1.27-1.61,2.54-3.24,3.8-4.88,1.45-1.96,2.99-3.06,4.6-3.32Zm-4.73,37.95c-.69,.42-2.26,1.06-4.7,1.88-2.44,.83-4.23,1.56-5.33,2.19-1.74,.97-2.7,2.1-2.92,3.39-.39,2.32,.94,3.23,3.97,2.73,5.05-.83,7.95-3.63,8.75-8.4l.19-1.11,.04-.68Zm13.19,9.79c-.53,3.24-2.98,5.23-7.36,5.95-4.28,.7-6.45-.86-6.53-4.67-4.17,4.92-9.49,7.9-15.96,8.97-4.17,.69-7.29,.28-9.36-1.22-2.24-1.62-3.03-4.37-2.39-8.26,.81-4.87,3.74-8.58,8.81-11.18,1.95-1,6.48-2.5,13.56-4.47,4.86-1.34,7.44-2.91,7.73-4.72,.35-2.07-1.18-2.84-4.58-2.28-2.62,.43-5.41,1.73-8.35,3.9-2.93,2.18-5.35,3.43-7.23,3.74-1.23,.2-2.17-.1-2.87-.89-.7-.78-.96-1.74-.77-2.91,.57-3.38,3.45-6.33,8.64-8.85,3.8-1.84,7.85-3.11,12.12-3.82,6.13-1.01,10.62-.98,13.47,.08,3.77,1.47,5.22,4.82,4.35,10.1-.38,2.28-.93,5.7-1.64,10.28-.71,4.58-1.26,8-1.64,10.26Zm-67.81,15.81c-2.41,.4-4.21,.01-5.34-1.15-1.14-1.18-1.5-2.92-1.12-5.22l3.91-23.56c.78-4.68,3.53-7.4,8.24-8.17,3.25-.53,5.18,.11,5.77,1.96,.4,1.07,.29,3.37-.29,6.95,3.53-7.29,7.55-11.32,12.06-12.06,4.04-.66,5.69,1.24,4.94,5.68-.4,2.46-1.59,4.4-3.56,5.85-.85,.64-2.83,1.66-5.92,3.07-2.64,1.15-4.51,2.37-5.66,3.63-1.38,1.54-2.36,3.99-2.91,7.39-.09,.54-.24,1.39-.43,2.53-.18,1.13-.32,1.97-.42,2.52-.49,2.97-1.29,5.22-2.39,6.75-1.47,2.05-3.76,3.32-6.88,3.84Zm-11.43-27.99l-3.88,23.28c-.37,2.22-1.36,4.14-3,5.73-1.64,1.6-3.63,2.59-5.96,2.97-2.43,.4-4.21,.01-5.37-1.15-1.17-1.17-1.55-2.91-1.16-5.21l3.79-22.86c.39-2.32,1.38-4.29,3-5.9,1.62-1.61,3.65-2.63,6.07-3.03,2.34-.38,4.09,0,5.28,1.12,1.18,1.15,1.58,2.82,1.22,5.04Zm-11.98-14.18c.31-1.81,1.25-3.5,2.86-5.07,1.6-1.57,3.35-2.51,5.26-2.82,1.93-.32,3.48,.07,4.63,1.17,1.14,1.1,1.56,2.57,1.26,4.43-.31,1.85-1.26,3.54-2.83,5.06-1.58,1.53-3.34,2.44-5.28,2.76-1.9,.31-3.43-.08-4.59-1.17-1.18-1.09-1.6-2.55-1.31-4.35Zm203.66,57.27c-.68,.44-2.25,1.06-4.7,1.9-2.43,.82-4.22,1.57-5.32,2.19-1.73,.96-2.7,2.09-2.92,3.39-.39,2.31,.95,3.22,3.97,2.72,5.04-.83,7.94-3.63,8.73-8.39l.19-1.12,.04-.69Zm13.2,9.81c-.54,3.24-3,5.22-7.37,5.94-4.28,.7-6.45-.86-6.54-4.67-4.16,4.93-9.49,7.91-15.96,8.98-4.18,.69-7.29,.27-9.36-1.23-2.24-1.62-3.04-4.37-2.39-8.26,.8-4.87,3.73-8.6,8.8-11.18,1.97-1,6.49-2.49,13.58-4.47,4.84-1.34,7.43-2.91,7.73-4.71,.34-2.09-1.18-2.84-4.59-2.28-2.62,.43-5.4,1.73-8.34,3.9-2.94,2.17-5.35,3.41-7.25,3.73-1.21,.2-2.17-.09-2.86-.87-.7-.78-.96-1.77-.76-2.92,.56-3.38,3.45-6.33,8.63-8.86,3.81-1.83,7.84-3.1,12.13-3.81,6.12-1.01,10.61-.98,13.45,.08,3.78,1.46,5.23,4.82,4.36,10.11-.37,2.27-.92,5.69-1.63,10.26-.72,4.58-1.26,8.02-1.64,10.28Zm-2.54-45.4c2.06,3.5,3.41,7.25,3.98,11.24l-.05-.02-.51-.2-.42-.16-.4-.13-.42-.12-.41-.1-.41-.1-.43-.09-.44-.08-.42-.08-.46-.05-.44-.06-.46-.05-.46-.03-.47-.03-.47-.02h-.49l-.47-.03h-.49l-.5,.02-.51,.02h-.5l-.52,.04-.53,.04-.53,.05h-.24c-.82-2.87-2.23-5.6-4.14-8.13l11.63-1.91Zm-39.35,2.39l-1.12-53.11,26.71,13.81,25.11-34.87,3.56,30.27,50.49-29.35-43.99,63.27-60.76,9.99Zm58.98,15.7c.06,.39,0,.69-.14,.93-.15,.21-.41,.36-.78,.42-.37,.06-.66,0-.87-.15-.22-.18-.35-.45-.42-.84l-1.31-7.98c-.11-.65-.09-1.11,.07-1.39,.15-.25,.49-.42,.99-.5l3.85-.63c1.17-.19,2.07-.09,2.72,.31,.65,.41,1.05,1.13,1.22,2.15,.11,.66,.06,1.23-.14,1.71-.21,.49-.55,.85-1.05,1.09,.43,.07,.77,.24,1.04,.49,.25,.24,.43,.62,.56,1.1,.05,.19,.11,.44,.16,.77,.07,.32,.12,.53,.17,.63,.03,.13,.1,.31,.2,.54,.08,.24,.15,.4,.17,.5,.05,.31-.01,.56-.18,.77-.17,.22-.42,.35-.76,.4-.45,.07-.81-.01-1.05-.23-.23-.23-.48-.89-.73-1.97-.2-.84-.42-1.35-.68-1.51-.26-.16-.67-.2-1.22-.11l-2.33,.38,.51,3.12Zm-1.28-7.81l.47,2.83,2.58-.42c.56-.09,.95-.28,1.18-.54,.23-.28,.29-.65,.21-1.15-.08-.46-.26-.8-.56-.99-.31-.2-.71-.25-1.21-.17l-2.68,.44Zm1.47-4.22c4.12-.68,7.99,2.11,8.67,6.23,.68,4.12-2.11,8-6.22,8.68-4.11,.68-8-2.12-8.67-6.23-.68-4.11,2.11-8,6.22-8.67Zm-52.55-10.88l-.73-34.97,21.5,11.13,18.5-25.7,2.72,23.1,35.16-20.44-26.84,38.62-50.31,8.27Zm52.31,9.41c4.91-.81,9.57,2.53,10.37,7.45,.81,4.91-2.53,9.57-7.44,10.38-4.91,.81-9.57-2.54-10.38-7.45-.81-4.91,2.53-9.57,7.45-10.38Z"/><path class="cls-2" d="M309.36,191.43l-2.8-4.78,4.09-2.37,2.8,4.78-4.09,2.37Zm-8.18,4.92l-2.8-4.78,4.08-2.37,2.8,4.78-4.09,2.37Zm-8.64,4.31l-2.54-4.91,4.2-2.15,2.54,4.92-4.21,2.15Zm-4.24,2.3l-4.31,1.93-.86-1.91c-.11,1.84-.93,3.1-2.48,3.79-2.16,.97-3.88,.06-5.14-2.74l-4.2-9.29c-1.26-2.78-.8-4.65,1.36-5.62,1.42-.64,2.82-.48,4.19,.48l-2.66-5.89,4.5-2.02,9.62,21.25Zm-9.65-9.37c-.78-1.72-1.52-2.41-2.23-2.1-.6,.27-.71,.84-.32,1.71l3.75,8.28c.39,.87,.89,1.16,1.49,.89,.71-.32,.68-1.34-.1-3.05l-2.59-5.73Zm-20.52,.48l1.17-4.79,3.92-1.51-3.18,5.57-1.91,.74Zm10.05,16.19c-.64,1.46-1.57,2.42-2.79,2.89-1.51,.58-2.76,.37-3.76-.64-.65-.64-1.31-1.82-1.98-3.54-.64-1.63-.55-3.15,.25-4.56,.23-.42,1.08-1.45,2.53-3.07,.95-1.05,1.28-1.93,1.01-2.64l-.24-.62c-.11-.29-.32-.51-.61-.65-.3-.15-.59-.16-.88-.05-.56,.22-.78,.72-.64,1.5,.05,.23,.25,.8,.6,1.7l-4.3,1.66-.42-1.08c-.63-1.61-.57-3.04,.17-4.28,.67-1.11,1.83-1.99,3.48-2.63,1.9-.74,3.43-.89,4.58-.46,1.24,.46,2.23,1.61,2.96,3.48l4.91,12.56-4.3,1.66-.57-1.22Zm-3.09-7.36c-.61,.74-.99,1.3-1.13,1.68-.23,.59-.21,1.23,.07,1.94l.69,1.76c.21,.54,.38,.88,.49,1.03,.25,.32,.57,.4,.97,.25,.87-.34,1.02-1.23,.46-2.67l-1.56-3.99Zm-17.56,16.38l-1.37-3.9,1.97-11.93-5.26,1.83-1.29-3.68,10.5-3.65,1.26,3.58-2.06,12.33,5.72-1.99,1.29,3.68-10.75,3.73Zm-14.22,3.73l-1.02-4,3-11.71-5.4,1.36-.97-3.78,10.78-2.72,.94,3.67-3.13,12.1,5.87-1.48,.96,3.78-11.04,2.78Zm-8.71,2.17l-4.3-18.15,4.8-1.12,4.3,18.15-4.8,1.12Zm-4.54-19.17l-.83-3.51,4.8-1.12,.83,3.51-4.8,1.12Zm-8.35,15.64c.34,1.85,.89,2.71,1.65,2.57,.65-.12,.89-.65,.72-1.61l-1.63-8.93c-.17-.93-.58-1.34-1.23-1.23-.77,.14-.98,1.13-.64,2.98l1.13,6.21Zm-7.09-11.41l4.65-.84,.37,2.06c.59-1.76,1.7-2.79,3.33-3.08,2.34-.42,3.78,.87,4.32,3.87l1.82,10.02c.55,3.01-.35,4.73-2.68,5.15-1.4,.25-2.71-.24-3.95-1.48l.93,5.1-4.86,.87-3.94-21.67Zm-15.76,16.28c.13,1.02,.56,1.48,1.3,1.39,.79-.1,1.1-.82,.93-2.17-.03-.23-.08-.54-.16-.92-.08-.38-.12-.63-.14-.74l4.98-.63,.19,1.47c.49,3.85-1.29,6.03-5.34,6.54-4.04,.51-6.3-1.16-6.79-5.01l-.98-7.65c-.49-3.85,1.28-6.03,5.31-6.53,4.05-.51,6.33,1.16,6.82,5l.6,4.65-7.18,.91,.47,3.69Zm-1.16-9.03l.25,1.96,2.2-.28-.25-1.96c-.13-1.02-.56-1.48-1.3-1.39-.73,.09-1.04,.65-.9,1.67Zm-7.15,11.24l.27,3.65c-.81,.18-1.6,.29-2.37,.35-1.61,.12-2.73-.33-3.35-1.36-.42-.71-.7-1.98-.84-3.82l-.72-9.63-1.22,.09-.27-3.54,1.22-.09-.29-3.89,4.8-.35,.29,3.89,1.37-.1,.27,3.54-1.43,.1,.77,10.27c.05,.66,.55,.95,1.5,.88Zm-22.28,3.52c-1.08,1.17-2.28,1.78-3.58,1.82-1.61,.06-2.73-.54-3.35-1.82-.4-.82-.64-2.15-.71-3.99-.07-1.74,.51-3.15,1.73-4.23,.36-.32,1.49-1.02,3.4-2.08,1.24-.69,1.84-1.41,1.81-2.16l-.03-.67c-.01-.31-.13-.58-.37-.82-.23-.23-.51-.34-.82-.33-.6,.02-.97,.42-1.09,1.21-.03,.23-.02,.84,.01,1.8l-4.61,.18-.05-1.16c-.07-1.73,.45-3.05,1.57-3.99,1-.83,2.38-1.29,4.15-1.35,2.04-.08,3.54,.27,4.48,1.05,1.03,.83,1.58,2.25,1.66,4.25l.54,13.46-4.61,.18-.14-1.33Zm-.52-7.96c-.82,.5-1.36,.91-1.62,1.23-.41,.48-.6,1.1-.57,1.86l.08,1.89c.02,.58,.07,.96,.13,1.13,.13,.38,.41,.57,.84,.55,.93-.04,1.37-.83,1.31-2.38l-.17-4.27Z"/></svg>